<?xml version="1.0" encoding="UTF-8"?><svg xmlns="http://www.w3.org/2000/svg" width="295.56" height="168.76" viewBox="0 0 295.56 168.76"><g isolation="isolate"><g id="Layer_1"><path d="M24.71,151.77c-5.77-15.19-5.89-33.17.46-48.07,6.35-14.9,19.26-26.27,33.81-28.73,6.89-1.17,14.05-.44,20.74-2.65,10.48-3.46,18.01-13.4,26.2-21.51,9.23-9.13,20.22-16.45,32.31-18.95s25.38.27,34.74,9.24c4.67,4.48,8.28,10.33,13.4,14.15,7.38,5.51,16.73,6.01,25.53,7.19,13.6,1.82,27.76,6.19,37.11,17.44,6.52,7.84,10.01,18.23,12.73,28.51,3.85,14.52,6.22,31.31-1.26,43.92" fill="#f5f5f5" stroke-width="0"/><path d="M22.33,75.52c2.19-9.36,12.56-12.29,20.69-8.32.98.59,2.76.5,1.3-.69-8.21-4.43-18.9-2.4-22.58,6.78-.33.76-.98,3.16.34,2.65.19-.22-.05.12.21-.29l.05-.13Z" fill="#f5f5f5" stroke-width="0"/><path d="M37.75,76.69c3.99-8.9,15.7-12.14,24.72-12.46,1.59-.49-.1-1.24-.94-1.12-8.03-.1-22.72,4.71-24.72,13.42.11.54.49.7.86.27l.08-.11Z" fill="#f5f5f5" stroke-width="0"/><path d="M64.43,69.36c.18-8.07,7.69-11.79,13.68-16.01.81-.44,1.31-1.92-.12-1.33-6.33,4.53-15.25,8.78-14.52,17.62.28.52.82.34.93-.14l.03-.14Z" fill="#f5f5f5" stroke-width="0"/><path d="M82.35,60.79c-3.62-4.62-6.32-10.76-6.32-16.64.38-12.16,9.53-25.08,21.8-26.76,4.32-.74,8.69-.27,12.89,1.22.86.28,1.67.22,1.6-.17-.31-.78-1.33-.95-2.09-1.27-2.95-1.05-6.05-1.73-9.17-1.66-18.42.93-32.09,22.99-23.54,39.75,1.03,2.12,2.18,4.2,3.74,5.87.36.32.71.45.94.39.29-.07.26-.4.19-.62l-.05-.12Z" fill="#f5f5f5" stroke-width="0"/><path d="M106.68,29.23c1.66-3.46,4.69-6.38,7.39-9.13,3.01-3.08,7.03-4.11,11.09-4.76.92-.29.91-.98-.01-1.06-7.83.13-13.46,5.48-17.88,11.53-.47.84-2.3,3.12-1.17,3.74.13.03.29-.04.4-.12l.19-.19Z" fill="#f5f5f5" stroke-width="0"/><path d="M20.72,36.55c3.75-3.92,9.9-4.51,15.19-4.3,7.18.02,14.77,3.07,17.38,10.33.21.52.67,1.89,1.24,1.59.2-.14.27-.61.16-1.13-2.26-8.22-10.6-12-18.51-12.03-4.39-.21-9.47.21-13.17,2.24-.88.45-4.12,2.6-2.7,3.46.24-.04-.11.06.3-.08l.11-.06Z" fill="#f5f5f5" stroke-width="0"/><path d="M48.06,48.96c.78-2.58,4.58-4.11,6.88-5.42,2.8-1.35,6.12-2.41,9.19-1.44,1.14.31,2.24.86,3.4,1.08,1.07.19,1.46-.66.46-1.04-5.91-2.33-9.68-2.05-15.18,1.13-2.12,1.31-5.95,3.09-5.79,5.91.23.63.86.43,1-.11l.03-.11Z" fill="#f5f5f5" stroke-width="0"/><g mix-blend-mode="multiply"><path d="M125.52,96.46c.06,2.19.47,4.71-.96,6.53-4.6,6.19-11.45,10.89-18.23,14.74-4.84,2.36-10.14,3.7-14.95,6.2-3.97,1.81-8.58,2.22-12.82,2.54-4.57,1.16-9.58-.34-12.28-4.34-.92-1.21-.87-2.77-1.32-4.16-1.17-3.3-2.53-6.54-3.86-9.77-.4-1.03-.8-2.03-.35-3.03,1.03-1.79,2.68-3.18,4.05-4.71,8.23-9.13,17.81-11.61,28.91-13.83,8.09-1.54,16.09-4.4,24.33-4.61.85.15,1.42.86,1.73,1.64,1.78,4.13,4.38,8.29,5.71,12.66l.03.15Z" fill="#ddd" stroke-width="0"/></g><path d="M125.6,96.6c.56,5.83-.32,8.47-4.25,12.81-2.63,3.13-6.18,5.2-9.99,6.61-5.61,2.81-11.76,4.35-17.43,7.04-5.17,2.86-11.16,3.35-16.86,3.89-4.26.86-8.81-1.37-11.01-5.09-1.34-4.82-3.32-9.73-5.22-14.3-1.76-4.49-3.52-9.14-5.21-13.56-1.6-4.2-3.81-8.22-5.31-12.45-1.29-3.71-2.55-7.55-4.06-11.17-1.1-2.49-2.34-5.02-3.37-7.41-.18-.46-.26-.91-.16-1.28.12-.47.54-.81,1.11-1.07,3.26-1.37,6.61-2.5,9.85-3.86,10.62-3.62,21.07-7.82,31.53-11.91,4.32-1.55,8.69-2.95,12.83-4.94,2.03-1.11,2.88.16,3.47,2.02.79,2.25,2.03,4.35,3.07,6.55,4.48,10.38,9.96,20.28,13.54,31.07,2.04,5.78,5.56,11.09,7.43,16.91l.03.15Z" fill="#999" stroke-width="0"/><path d="M122.79,97.01c.16,2.12.4,4.59-.56,6.53-.85,1.58-2.08,2.95-3.25,4.35-2.24,2.53-5.17,4.27-8.31,5.4-4.51,2.22-9.45,3.87-14.2,5.65-2.06.8-4.02,1.8-6.04,2.68-3.66,1.63-7.6,2.04-11.51,2.3-1.55.12-3.05.53-4.6.37-2.22-.26-4.56-1.67-5.62-3.65-3.16-9.75-7.5-19.25-11-28.95-1.24-3.13-2.85-5.99-4.01-9.16-1.66-4.11-2.83-8.36-4.56-12.45-.7-1.87-1.69-3.62-2.43-5.47-.2-.55-.28-1.08-.12-1.51.17-.48.64-.82,1.23-1.08,2.35-.96,4.75-1.77,7.07-2.77,12.77-4.21,25.12-9.71,37.84-14.14,1.82-.44,4.12-2.21,5.89-1.73.39.19.68.61.93,1.11.89,2,2.13,4.14,3.03,6.24,4.28,9.92,9.57,19.47,12.95,29.74,1.96,5.6,5.38,10.78,7.23,16.39l.03.15Z" fill="#fff" stroke-width="0"/><path d="M125.2,96.71c.12,17.34-18.02,19.75-30.64,25.37-5.19,2.42-10.71,3.9-16.44,4.24-2.83.22-5.78.07-8.23-1.42-4.45-2.76-4.84-8.67-6.72-13.08-3.42-8.67-6.58-17.48-10.36-25.99-2.11-5.23-3.95-10.55-6.15-15.74-.77-2.56-3.27-5.09-2.76-7.9.27-1.07,1.37-1.6,2.37-1.99,3.67-1.42,7.03-2.79,10.7-3.98,8.75-2.51,17.3-6.42,25.77-9.8,4.78-1.78,9.53-3.47,14.2-5.49,3.51-.93,4.68,2.56,5.81,5.15,4.97,10.08,9.97,20.43,13.79,30.91,1.07,2.83,2.12,5.68,3.38,8.43,1.43,3.15,3.54,6.28,4.68,9.6.16.44.71,1.67,1.06,1.15.23-.36.02-1.39-.32-2.22-1.38-3.79-3.77-7.46-5.32-11.04-1.34-3.03-2.46-6.19-3.64-9.29-2.91-7.89-7.01-15.18-10.3-22.81-1.11-2.6-2.4-5.06-3.42-7.71-.64-1.37-1.16-3.34-2.57-4-.63-.25-1.43-.05-2.23.23-13.88,5.71-27.98,11.22-42.17,16.15-3.93,1.3-7.77,3.19-11.62,4.53-2.18.66-2.46,2.19-1.43,4.12.93,1.87,1.83,3.4,2.56,5.2,6.2,16.58,13.04,32.93,19.25,49.52.89,2.95,2.58,6.06,5.38,7.41,8.97,3.98,19.63-1.22,28.19-4.44,11.74-4.2,28.16-8.4,28.05-23.75.1-.58-.38-2.39-.83-1.46l-.05.12Z" fill="#999" stroke-width="0"/><path d="M74.76,123.95c-1.72-.67-3.66-1.36-4.64-2.92-2.18-3.27-3.08-7.32-4.66-10.9-3.59-9.01-6.95-18.18-10.92-27.07-1.39-3.35-2.34-6.83-3.88-10.09-1.38-3.57-5.62-9.19-.51-11.56,3-1.61,6.8-2.28,9.99-3.4,11.82-4.42,23.65-8.98,35.4-13.56,2.57-.84,4.2,1.24,5.05,3.4,1.37,2.84,2.62,5.71,3.95,8.56,4.06,8.24,7.62,16.64,10.84,25.22,1.75,5.05,4.98,9.46,6.63,14.57,2.76,12.8-12.84,17.48-22.16,20.98-4.31,1.69-8.49,3.81-12.9,5.09-3.56,1.09-7.52,1.2-11.14,1.7-.58.18-.72.47-.31.66,3.13.5,6.7-.42,9.86-.9,7.41-1.65,14.3-5.78,21.59-8.1,6.5-2.53,14.13-6.61,16.09-13.77,1.01-4.38-1.13-8.67-2.98-12.57-4.17-8.69-7.11-17.73-11.23-26.4-3.02-6.15-5.67-12.42-8.48-18.66-1.64-3.2-4.83-.52-7.21.18-5.08,1.82-10.14,3.68-15.15,5.7-7.93,3.04-15.78,6.49-23.9,8.86-2.61,1-6.65,1.4-7.93,4.07-.32,1.22.37,2.45.74,3.55,3.53,8.59,6.75,17.19,10.53,25.71,3.51,9.09,7.06,18.42,10.41,27.59,1.05,2.64,3.82,4.78,6.65,4.75.63-.08.73-.35.37-.6l-.1-.07Z" fill="#ddd" stroke-width="0"/><path d="M83.1,47.61c-.93-5.71-4.22-4.65-8.39-2.83-2.59.9-5.34,2.08-7.89,2.97-2.12.71-4.62,1.29-6.38,2.73-1.36,1.05-1.36,2.67-.84,4.2.36,1.08.84,2.35,1.99,2.74,1.46.46,3.12-.64,4.83-1.14.83-.29,1.54-.19,2.06.59,1.96,3.1,6.81,3.65,9.42.86,1.31-1.39,1.35-3.2,2.11-4.93.48-1.83,3.47-2.48,3.2-4.44-.17-.53-.58-.55-1-.03-.45.63-1.55,1.34-2.35,1.79-1.39.66-1.49,2.09-1.74,3.46-.73,3.3-2.86,5.48-5.64,4.77-2.33-.22-3.04-3.94-5.51-3.45-1.86.51-5.04,2.45-5.96-.32-.16-3.25,3.59-5.04,6.22-5.96,3.57-1.23,7.17-2.72,10.8-3.77,1.54-.49,3.17.02,3.73,1.63.21.54.94,2.25,1.3,1.24v-.12Z" fill="#bbb" stroke-width="0"/><path d="M82.77,47.77c-.67-1.43-1.06-4.45-3.29-3.95-4.18,1.2-8.35,2.77-12.35,4.43-2.21.96-4.76,1.59-6.7,2.97-.91.89-.5,2.34-.11,3.41,1.3,4.75,4.47.94,7.37.82.78.09,1.2.95,1.64,1.55,2.24,3.23,7.84,2.46,9.37-1.1.54-1.06.61-2.28.42-3.43-.05-.44-.03-.84.15-1.16.88-1.36,4.21-1.22,3.57-3.4l-.05-.15Z" fill="#bbb" stroke-width="0"/><path d="M66,68.92c-.96-4.85-5.57-2-8.41-.59-1.03.5-2.43.84-2.86,2.02-.21.58-.09,1.26.09,1.85.77,2.24,1.53,4.59,2.57,6.7.46.92,1.37,1.46,2.42,1.28,2.04-.38,3.97-1.15,5.85-1.93,1.81-.61,3.62-1.73,2.94-3.78-.33-1.31-1.07-2.59-1.67-3.79-.34-.72-.78-1.46-1.15-1.48-.33-.05-.43.52-.19,1.19.47,1.66,2.25,3.84,1.48,5.38-.37.68-1.09,1.17-1.76,1.54-1.92.84-4,1.93-6.11,1.55-1.95-.82-3.58-5.88-3.08-7.88.52-1.74,2.7-1.99,4.27-2.71.81-.34,1.73-.75,2.57-.72.35.02.74.08,1.04.25.58.12,1.6,2.56,2.01,1.25v-.13Z" fill="#999" stroke-width="0"/><path d="M71.61,82.86c-.96-4.85-5.57-2-8.41-.59-1.03.5-2.43.84-2.86,2.02-.21.58-.09,1.26.09,1.85.77,2.24,1.53,4.59,2.57,6.7.46.92,1.37,1.46,2.42,1.28,2.04-.38,3.97-1.15,5.85-1.93,1.81-.61,3.62-1.73,2.94-3.78-.33-1.31-1.07-2.59-1.67-3.79-.34-.72-.78-1.46-1.15-1.48-.33-.05-.43.52-.19,1.19.47,1.66,2.25,3.84,1.48,5.38-.37.68-1.09,1.17-1.76,1.54-1.92.84-4,1.93-6.11,1.55-1.95-.82-3.58-5.88-3.08-7.88.52-1.74,2.7-1.99,4.27-2.71.81-.34,1.73-.75,2.57-.72.35.02.74.08,1.04.25.58.12,1.6,2.56,2.01,1.25v-.13Z" fill="#999" stroke-width="0"/><path d="M58.75,72.69c.74,1,1.98,3.04,3.17,2.97.84-.07,1.41-.92,1.89-1.55,1.89-2.44,2.69-5.4,4.65-7.74.19-.44-.16-.73-.56-.57-2.13,1.45-2.63,4.41-4.04,6.37-.83,1.43-1.75,2.98-3.22,1.27-.45-.44-.82-1.24-1.34-1.48-.43-.19-.82.24-.62.62l.06.1Z" fill="#fb0" stroke-width="0"/><path d="M65.56,87.65c1.87,2.42,3.22,3.21,5.13.35,2.05-2.46,3.41-5.43,5.2-8.13.22-.32.45-.94.1-1.16-.14-.08-.33-.05-.51.07-1.44,1.59-2.47,3.71-3.57,5.58-.93,1.48-2.84,5.72-4.87,3.35-.35-.35-.69-.84-1.06-.94-.46-.13-.68.45-.48.78l.06.1Z" fill="#fb0" stroke-width="0"/><path d="M71.21,70.85c9.44-3.63,19.43-7.13,28.32-11.95,1.04-.94.36-2.53-1.07-2.08-8.79,3.92-17.9,7.75-26.93,11.14-.67.26-1.51.65-1.8,1.29-.41.82.31,1.72,1.16,1.65l.32-.04Z" fill="#ddd" stroke-width="0"/><path d="M79.3,81.04c4.86-2.88,10.51-4.28,15.58-6.72,3.16-1.55,6.74-2.44,9.71-4.3,1.26-1.56-.5-2.57-2-1.77-7.17,3-14.38,6.04-21.62,8.92-1.22.7-3.15,1.21-3.66,2.64-.24,1.02.99,1.72,1.84,1.29l.14-.06Z" fill="#ddd" stroke-width="0"/><path d="M81.58,86.82c3.54-1.48,7.21-3.61,10.93-4.58.41-.12.87-.28,1.14-.61,1.69-5.26-10.75,2-12.5,2.53-1.72.52-1.67,2.9.15,2.73l.29-.07Z" fill="#ddd" stroke-width="0"/><path d="M79.34,99.84c-.96-4.85-5.57-2-8.41-.59-1.03.5-2.43.84-2.86,2.02-.21.58-.09,1.26.09,1.85.77,2.24,1.53,4.59,2.57,6.7.46.92,1.37,1.46,2.42,1.28,2.04-.38,3.97-1.15,5.85-1.93,1.81-.61,3.62-1.73,2.94-3.78-.33-1.31-1.07-2.59-1.67-3.79-.34-.72-.78-1.46-1.15-1.48-.33-.05-.43.52-.19,1.19.47,1.66,2.25,3.84,1.48,5.38-.37.68-1.09,1.17-1.76,1.54-1.92.84-4,1.93-6.11,1.55-1.95-.82-3.58-5.88-3.08-7.88.52-1.74,2.7-1.99,4.27-2.71.81-.34,1.73-.75,2.57-.72.35.02.74.08,1.04.25.58.12,1.6,2.56,2.01,1.25v-.13Z" fill="#999" stroke-width="0"/><path d="M73.29,104.62c1.87,2.42,3.22,3.21,5.13.35,2.05-2.46,3.41-5.43,5.2-8.13.22-.32.45-.94.1-1.16-.14-.08-.33-.05-.51.07-1.44,1.59-2.47,3.71-3.57,5.58-.93,1.48-2.84,5.72-4.87,3.35-.35-.35-.69-.84-1.06-.94-.46-.13-.68.45-.48.78l.06.1Z" fill="#fb0" stroke-width="0"/><path d="M87.03,98.02c4.86-2.88,10.51-4.28,15.58-6.72,3.16-1.55,6.74-2.44,9.71-4.3,1.26-1.56-.5-2.57-2-1.77-7.17,3-14.38,6.04-21.62,8.92-1.22.7-3.15,1.21-3.66,2.64-.24,1.02.99,1.72,1.84,1.29l.14-.06Z" fill="#ddd" stroke-width="0"/><path d="M89.31,103.8c3.54-1.48,7.21-3.61,10.93-4.58.41-.12.87-.28,1.14-.61,1.69-5.26-10.75,2-12.5,2.53-1.72.52-1.67,2.9.15,2.73l.29-.07Z" fill="#ddd" stroke-width="0"/><path d="M59.11,53.35c1.32,5.8,2.43,4.97,7.36,3.47.29-.03.63-.05.9.05.59.18,1.01.75,1.45,1.21,2.67,2.81,6.34,2.67,9.12.27.5-.33,1.13-1.6.04-1.27-.79.38-1.45,1.15-2.28,1.48-1.6.82-4.02.5-5.28-.6-1.11-.78-1.76-2.68-3.35-2.44-2.5.77-5.38,1.37-6.61-1.61-.22-.59-1.14-1.87-1.37-.69v.12Z" fill="#444" stroke-width="0"/><path d="M74.71,54.07c0,.09-.34-.05-.31-.04-.09-.06-.05-.04-.07-.04-.06.02.16-.06.29,0,.02,0-.04-.02.05.03,0,0,0-.02,0-.05.01-.03-.2.06-.36-.03-.05.02.17-.19-.09-.05-.56.38-.08,1.19.58.9.43-.16.68-.72.48-1.2-.53-1.19-1.96-.32-1.57.76.18.66,1.08.82,1.45.24.58-.69-.17-1.93-1.02-1.38-.93.57-.16,1.83.57.88h0Z" fill="#444" stroke-width="0"/><path d="M243.64,42.28c-.93,11.6-2.47,23.15-5.17,34.52-2.35,8.96-7.8,16.8-13.73,23.77-5.98,6.74-14.83,10-22.2,14.89-2.94,1.9-6.89.63-9.78-.71-1.3-.75-1.56-1.86-3.07-2.84-.29-.22-.66-.42-.97-.61-3.34-1.88-7.07-3.97-10-6.16-6.66-4.95-11.83-12.8-15.78-20.2-3.94-7.79-4.76-16.58-6.24-25.06-1.09-5.68-1.36-11.45-1.96-17.2-.38-4.62.36-10.16,2.99-13.9,3.35-3.89,9.24-4.03,13.71-5.6,5.68-1.58,11.55-3.11,16.99-5.32,1.83-.71,3.89-1.54,4.6-3.54,1.7-3.85,9.29-.99,12.29.22,3.99,2.12,8.2,3.94,12.61,5.04,7.46,2.13,16.64,2.78,22.24,8.57,2.98,3.84,3.67,9.25,3.47,13.96v.16Z" fill="#999" stroke-width="0"/><path d="M239.04,42.03c-1.03,11.92-2.55,25.29-5.78,36.38-3.31,10.34-11.85,23.03-21.64,28.76-3.15,1.96-6.47,3.7-9.62,5.61-2.24,1.36-4.77,2.41-7.42,2.42-4.54-.08-8.23-3.2-12.12-5.15-2.42-1.38-4.85-2.8-7.17-4.36-6.07-4.02-10.16-9.99-14.07-15.98-1.77-2.81-3.35-5.77-4.53-8.87-2.63-7.12-3.38-14.73-4.71-22.15-.99-5.55-1.26-11.24-1.84-16.82-.24-6.07.81-14.12,7.37-16.27,8.69-2.77,17.46-4.42,25.86-7.79,4.39-1.25,7.69-5.83,12.63-4.83,3.18.52,5.4,3.15,8.35,4.24,6.46,2.71,13.3,4.37,20.02,6.3,3.77,1.04,8.8,1.81,11.39,4.67,2.9,3.75,3.5,9.11,3.32,13.69v.15Z" fill="#fff" stroke-width="0"/><path d="M238.76,42.14c-2.11,13.46-2.17,27.68-7.66,40.43-4.07,8.94-9.98,17.71-18.3,23.3-4.1,2.59-8.2,5.58-12.71,7.55-6.46,3.38-13.16-.93-18.63-4.43-14.14-7.58-23.47-21.91-26.8-37.32-2.01-10.04-3.92-20.41-4.16-30.59-.11-5.19.78-11.74,5.77-14.46,2.72-1.48,5.91-2.01,8.87-2.78,5.98-1.72,12.12-3.05,17.85-5.56,7.4-3.24,10.12-7.53,18.35-2.42,6.9,4.09,14.85,5.69,22.46,7.87,11.33,2.1,14.87,5.3,14.95,16.92.04.81.38,1.35.71.37.55-3.35-.19-7.18-1.71-10.21-3.4-6.92-12.52-7.37-19.09-9.53-5.24-1.42-10.43-2.92-15.34-5.33-5.77-3.29-9.24-5.21-15.33-1.06-4.43,2.54-9.16,4.25-14.12,5.66-5.18,1.48-10.35,2.62-15.51,4.29-2.41.82-4.73,2.14-6.11,4.35-2.29,3.85-2.77,8.48-2.51,12.87.52,6.28,1.1,12.6,2.18,18.84,1.48,9.26,2.72,18.88,7.73,27.02,4.9,8.39,10.95,16.19,19.55,20.86,4.97,2.59,10.26,6.71,15.96,6.72,6.07-.53,11.21-4.62,16.36-7.65,22.78-14.02,25.78-40.03,27.8-64.28.16-.46-.05-2.12-.49-1.51l-.05.09Z" fill="#999" stroke-width="0"/><path d="M230.24,32.61c-1.88-1.68-4.98-1.9-7.38-2.53-5.49-1.41-10.98-2.96-16.36-4.83-3.05-1.14-6.22-2.13-8.84-4.01-1.77-1.49-3.61-1.85-5.51-.33-8.25,5.04-18.22,6.9-27.28,9.6-2.26.72-5.28.72-6.7,2.89-1.59,2.83-1.32,6.73-1.12,9.97.24,3.49.65,7.01,1.12,10.48,1.01,7.23,1.79,15.08,4.1,22.21,3.7,11,11.17,21.28,21.48,27.03,3.47,1.98,6.89,4.65,10.95,4.87,2.51-.08,4.67-1.57,6.82-2.72,3.48-1.93,7.04-3.83,10.15-6.29,9.54-8.05,15.32-20.23,17.26-32.32,1.44-7.5,2.41-15.11,3.04-22.64.23-3.4.98-7.87-1.15-10.73-.32-.27-.52-.15-.45.28,1.88,4.11.9,8.8.48,13.14-.49,5.58-1.28,11.15-2.21,16.7-1.1,6.97-2.31,13.96-5.92,20.17-5.57,10.43-14.71,18.28-25.5,22.94-4.79,1.71-9.07-1.86-13.07-4.2-10.6-6.09-18.46-16.91-21.66-28.72-1.58-6.35-2.34-12.88-3.33-19.31-.49-3.77-.78-7.58-1.16-11.32-.39-3.66-.5-8.23,3.1-10.33,2.04-1.18,4.5-1.21,6.69-1.92,8.81-2.48,17.67-4.75,25.62-9.3,2.29-.77,4.4,1.06,6.52,2.23,2.67,1.38,5.51,2.19,8.42,3.23,3.34,1.09,6.73,2.04,10.09,2.97,3.45.84,8.02,1.59,11.34,3.25.44.1.67-.04.51-.33l-.05-.09Z" fill="#fb0" stroke-width="0"/><path d="M230.11,32.92c-2.09-1.44-4.89-1.65-7.31-2.41-5.33-1.61-10.73-2.81-16.03-4.75-2.72-1.05-5.19-1.76-7.81-3.24-1.42-.69-2.62-2.01-4.22-2.22-1.01-.07-1.89.57-2.71,1.1-2.99,2.1-6.59,3.22-9.97,4.47-5.28,1.91-10.63,3.11-15.95,4.69-6.18,1.64-8.22,1.13-8.76,8.44.43,11.67,2.32,23.33,4.72,34.74,2.2,9.01,9.81,20.86,17.43,26.16,3.99,2.58,8.24,5.08,12.49,7.15,2.38,1.27,4.97.31,7.13-.96,4.14-2.32,8.78-4.72,12.62-7.72,4.81-4.06,8.42-9.67,11.66-15.13,3.36-5.96,4.29-11.68,5.39-18.18,1.44-7.77,2.36-15.5,2.98-23.38.2-2.84,0-6.26-1.55-8.67l-.1-.1Z" fill="#fb0" stroke-width="0"/><path d="M176.22,67.26c-1.57-3.9,3.81-9.39,7.57-6.36,4.82,3.18,4.69,7.93,9.96,1.58,2.94-3.19,16.44-17.42,20.16-11.08,2.89,6.43-5.16,10.74-8.64,15.01-2.95,3.2-6.09,6.18-9.13,9.27-1.57,1.58-3.06,3.99-5.37,4.53-1.55.31-2.97-.88-4.01-1.93-1.42-1.46-2.94-2.77-4.29-4.31-1.73-1.72-3.52-3.42-5.27-5.19-1.35-1.33-2.41-3.2-1.65-5.12.75-2.25,2.61-3.47,4.61-2.11,1.24.88-1.27,2.76-1.87,3.8-.61.65-1.09,1.62-1.83,2.01-.17-.02.06.05-.19-.06l-.06-.06Z" fill="#444" stroke-width="0"/><path d="M209.58,47.97c3.15.45,4.84,4.41,3.53,7.23-.76,1.83-2.31,3.2-3.68,4.57-2.47,2.39-4.86,4.81-7.23,7.33-2.11,2.2-4.36,4.25-6.46,6.45-2,2.25-5.05,6.39-8.21,3.45-2.28-2.06-4.37-4.28-6.48-6.41-2.1-2.35-6.31-4.55-5.19-8.27.81-3.21,4.94-6.08,7.84-3.49,1.75,1.18,2.92,2.78,4.54,4.17.77.67,1.69.76,2.47.03,1.3-1.08,2.45-2.39,3.6-3.64,3.13-3.49,7.01-6.45,10.53-9.59,1.21-1.09,3-2.07,4.6-1.85l.16.02Z" fill="#fff" stroke-width="0"/><path d="M209.69,48.24c5.59,2.63,2.64,8.62-1,11.67-3.72,3.55-7.3,7.45-11.04,11.14-2.05,1.8-3.55,4.59-6.38,5.21-2.17.49-4.41-.39-5.96-1.92-3.51-3.39-8.47-6.4-8.48-11.67,0-.88.16-1.7.79-2.3,1.61-1.31,5.38-1.83,7.18-.17,1.81,1.62,3.81,5.18,6.52,3.03,2.17-1.48,3.68-3.79,5.45-5.69,1.73-1.88,3.85-3.51,5.71-5.18,1.78-1.61,3.79-3.4,6.12-4.04,1.14-.49.26-.85-.64-.71-3.91,1.21-6.77,4.88-9.87,7.38-2.25,1.93-3.8,4.63-6.07,6.56-3.15,2.8-5.84-1.35-8.34-3.22-3.4-2.39-7.96.71-8.36,4.62-.47,4.01,4.04,6.33,6.32,8.99,2.69,2.92,6.66,9.12,11.06,5.49,6.2-6.27,12.34-12.61,18.59-18.89.77-.81,1.51-1.68,2-2.69,1.5-2.81.46-6.76-2.65-7.93-.84-.27-1.41-.1-1.02.27l.08.08Z" fill="#fff" stroke-width="0"/><path d="M162.28,33.39c-1.44.68-2.24,2.34-2.51,3.87-.04.56-.48,1.74.35,1.74.17-.04.3-.18.35-.36.13-.87.23-1.84.64-2.69.32-.99,1.27-1.42,1.89-2.14.05-.35-.38-.52-.65-.45l-.07.03Z" fill="#fff" stroke-width="0"/><path d="M160.51,41.63v-.14c0-.11-.05-.23-.13-.31-.04-.04-.08-.07-.14-.09-.05-.03-.11-.04-.16-.04-.11,0-.23.04-.31.13s-.13.19-.13.31v.14c0,.11.05.23.13.31.04.04.08.07.14.09.05.03.11.04.16.04.11,0,.23-.04.31-.13s.13-.19.13-.31h0Z" fill="#fff" stroke-width="0"/><path d="M159.6,46.89c-.04,4.32.97,8.6,2.01,12.78.08.34.33.87.7.7.15-.08.24-.3.22-.55-.4-2.08-1.02-4.18-1.37-6.29-.4-2.12-.63-4.27-.67-6.41.02-.6-.64-.99-.88-.34v.12Z" fill="#fff" stroke-width="0"/><path d="M225.9,33.59c2.55,1.12,3.73,2.83,3.95,5.62.12.46.77.51.82,0,.11-2.8-1.5-5.1-4.05-6.25-.26-.12-.65-.28-.87-.02-.19.21-.08.49.08.62l.06.03Z" fill="#fff" stroke-width="0"/><path d="M228.8,50.51c-.11.88-.37,1.76-.4,2.68-.06.24-.23.5-.06.71.1.15.29.24.48.17.62-.3.46-1.17.57-1.78.04-.71.49-1.48.16-2.16-.28-.21-.63.04-.75.32v.05Z" fill="#fff" stroke-width="0"/><path d="M233.92,18.32c2.86-1.1,3.91-4.3,3.35-7.23-.08-.32-.26-.88-.54-.84-.18.23.07.78.25,1.09,1.12,1.96,3.29,3.09,5.51,2.79.25,0,1.33-.25,1.16-.46-1.49.65-2.68,2.93-2.68,4.34.05,1.19.05,2.99,1.07,3.75.12.03.18-.07.17-.25-1.05-2.91-4.78-4.87-7.8-4.02-.63.18-1.08.53-1,.73.18.32,1.07.16,1.49.11,2.51-.49,4.66.83,6.14,2.79.3.4,1.32,1.66,1.42.55-.41-2.3-1.06-4.67.82-6.56,1.65-1.56,2.05-2.52-.72-1.97-1.62.25-3.26-.36-4.27-1.63-.51-.47-.96-1.73-1.73-1.59-.25.19-.24.8-.21,1.17.3,2.21.09,4.41-1.81,5.83-.35.28-.82.71-.99,1.05-.07.14-.08.25-.02.31.17.08-.12,0,.25.06l.12-.02Z" fill="#fb0" stroke-width="0"/><path d="M17.62,152.94c80.04.25,161.56,0,241.61.09,4.78,0,8.83,0,11.78,0,.38,0,.81-.02,1.12-.11.31-.09.43-.23.4-.35-.03-.16-.29-.22-.34-.21-4.56.5-254.09-.97-254.81.53l.24.06Z" fill="#ddd" stroke-width="0"/><path d="M49.23,33.13c-.95-1.07-2.75-1.01-3.48.45-.65,1.61-2.46,3.17-2.35,4.94.75,1.81,2.85,2.55,4.37,3.73.81.55,1.88.85,2.67.1,1.28-1.25,2.21-2.9,3.03-4.47.29-.6.37-1.23.08-1.77-.65-1.14-1.96-1.67-3.04-2.31-.77-.49-1.88-.53-.91.41,1.25.93,3.68,1.83,2.8,3.83-.24.6-.67,1.21-1.07,1.76-.76.98-1.49,2.14-2.6,1.84-1.26-.41-2.33-1.35-3.37-2.13-.35-.29-.67-.66-.83-1.08-.2-.62.14-1.25.46-1.78.48-.8.89-1.68,1.5-2.41.43-.51.94-.82,1.49-.72.36.02,1.62.45,1.31-.29l-.07-.1Z" fill="#fb0" stroke-width="0"/><path d="M27.24,96.31c-1.21,2.39,1.29,5.29,3.86,4.17,2.65-1.25,2.12-5.93-.99-6.04-1.09-.11-2.79.79-2.66,1.97.08.19.29.2.51.05.52-.44.99-1.12,1.76-1.13,2.01-.23,2.89,2.43,1.59,3.89-1.5,1.55-3.99-.3-3.42-2.4.06-.39-.2-.99-.58-.63l-.08.1Z" fill="#fb0" stroke-width="0"/><path d="M167.31,11.07c-1.16,1.63-.13,4.72,2.24,4.35,2.29-.29,2.56-3.48.93-4.68-.81-.59-2.01-.31-2.76.23-.57.6.23.8.73.56,1.98-1.03,3.11,2.02,1.36,2.9-1.15.55-2.26-.72-2.08-1.85.01-.48.37-.98.36-1.39-.02-.37-.47-.43-.69-.22l-.07.09Z" fill="#fb0" stroke-width="0"/><path d="M99.45,29.05c2.18.11,4.08-1.83,4.44-3.95,0-.2.04-.58-.14-.58-.5,1.89,1.36,3.88,3.16,4.32.18.04.7.12.69.02-1.11-.18-2.41.67-3,1.59-.55.93-1.12,2.21-.78,3.28.08.16.18.21.26.13.53-1.64-1.05-3.8-2.42-4.68-.57-.39-2.21-1.02-2.64-.43-.03.11.08.25.31.39,1.01.51,2.24.87,2.89,1.81,1.19,1.29,1.62,5.85,2.65,1.18.32-1.19,1.24-2.09,2.39-2.48,2.81-1.23-1.11-1.61-1.79-2.61-.47-.47-.76-1.11-.94-1.78-.14-.61-.63-1.85-1.23-.84-.66,1.39-1.24,3.03-2.89,3.51-.57.22-1.9.74-1.09,1.09l.13.03Z" fill="#fb0" stroke-width="0"/><path d="M69.39,20.53c-.42-.59-1.28-1.71-1.64-2.4.54.11,1.35.09,1.95.07.26,0,.52-.07.6-.02.2.43-2.5,2.84-1.13,3.05.42-.08.68-.71.99-1.1.4-.74,1.38-1.48,1.15-2.39-.26-.55-1.09-.47-1.69-.45-.65.05-1.26,0-1.97.04-1.76.15-.33,1.81.22,2.58.37.44.95,1.72,1.55,1.06.05-.12.08-.24.02-.36l-.05-.08Z" fill="#fb0" stroke-width="0"/><path d="M54.49,130.4c-.6,8.1-10.26,10.16-15.22,4.08-1.37-1.56-2.27-3.42-2.08-5.47.34-11.78,17.4-9.54,17.31,1.23v.15Z" fill="#444" stroke-width="0"/><path d="M51.46,127.54c.39,1.05.26,3.16.92,4.39.27.54.77.95,1.04,1.49.35.73-.13,1.46-.63,2.08-.6.79-1.44.69-2.15.19-1.14-.92-2.54-.79-3.88-.51-1.24.23-2.21-.51-3.1-1.29-.88-.72-1.89-1.48-1.96-2.71-.06-.64-.05-1.34,0-1.99.05-.4.14-1,.64-.92.94.19,2.17,1.99,3.22,1.4.63-.36.79-1.18.3-1.75-.44-.72-2.02-1.28-1.91-2.18.48-.79,1.8-.9,2.65-1.14,1.29-.28,2.44.84,3.58,1.62.45.35.97.7,1.23,1.21l.05.12Z" fill="#fb0" stroke-width="0"/><path d="M279.26,71.82s-.09.17-.07.26" fill="#fb0" stroke-width="0"/><path d="M260.49,78.19c-6.2,4.27-15.74.75-16.85-6.9-1.56-9.44,11.62-16.69,19.02-10.57,5.49,4.5,3.68,13.64-1.9,17.29l-.26.18Z" fill="#444" stroke-width="0"/><path d="M262.14,73.51c1.11-2.39.21-5.64-1.5-7.66-.33-.41-.7-.77-1.01-1.19-.46-.57-.64-1.37-1.07-1.63-.65-.28-1.88-.1-2.68-.49-2.74-.96-5.94-.77-7.83,1.03-.23.24-.43.6-.16.85.57.4,1.44.34,2.04.74,1.02.46,1.41,1.91,2.28,2.48.91.51,2.3.33,3.09,1.02.82.53,1.15,1.74,2,2.3.72.44,1.67.33,2.42.66.88.3,1.42,1.17,2.02,1.81.13.12.24.16.34.12l.07-.05Z" fill="#fb0" stroke-width="0"/><path d="M255.31,67.32c-1,1.48-6.06,11.83-6.68,5.59-.09-.24-.32-.29-.49-.1-.48.69-.13,2.1.56,2.58,3.09,1.58,5.68-5.46,7.16-7.47.31-.47.05-1.08-.49-.69l-.07.09Z" fill="#fb0" stroke-width="0"/><path d="M161.58,133.22c.05,1.26.52,2.53.98,3.72,1.1,2.71,1.93,5.68,3.32,8.08,1.77,3.42,5.13,6.58,9.06,7.04.93.11,1.73.59,2.66.73,1.38.13,2.78-.29,4.17-.36.9-.04,2.11-.36,2.16-1.41.11-1.08-.95-2.12-2.03-2.27-.78-.1-1.6-.05-2.26-.49-1.46-1.21-3.56-1.96-4.81-3.33-.81-.86-.61-2.03-.89-3.1-.6-2.5-1.94-4.66-2.77-7.01-.53-2.97-1.45-6.33-.95-9.37.6-2.5,1.41-4.99,2-7.49.16-.76.17-1.58-.25-2.14-1.69-1.84-2.92,1.47-3.88,2.42-.42.3-1.01.16-1.5.31-1.61.53-1.43,2.81-1.69,4.13-.07.17-.18.19-.37.11-.39-.21-1.16-.67-1.62-.27-.29.23-.41.71-.46,1.11-.3,3.08-.91,6.28-.88,9.4v.18ZM178.15,152.12s.04,0,.11,0c-.25.37-.64,0-.11,0Z" fill="#999" stroke-width="0"/><path d="M161.77,127.81c.07-.86.07-1.9.72-2.53.81-.58,1.13.35.98,1.19-1.64,11.35,4.65,23.9,16.98,25.14.8,0,3.9.07,1.56.82-4.8,1.41-9.42-1.41-13.01-4.33-5.43-4.94-7.7-12.98-7.25-20.11v-.18Z" fill="#bbb" stroke-width="0"/><path d="M189.5,105.97c2.61-1.79,5.01-4.06,7.37-6.17.65-.56,1.42-1.91,2.35-1.34,1.16,1.52,1.27,3.74,1.6,5.59.51,2.64.43,5.48.95,8.13.6,2.36,1.29,4.59,1.93,6.91.12.43.16.81,0,1.08-.74.89-2.42.58-3.49.56-2.2-.12-3.47-1.8-4.34-3.68-1.17-2.1-2.52-4.28-3.83-6.37-.36-.7-.84-1.37-1.48-1.74-.91-.48-1.88-1.81-1.16-2.84l.1-.13Z" fill="#999" stroke-width="0"/><path d="M177.2,144.66c2.74-1.87,5.61-3.48,7.41-6.51,3.54-6.1,4.87-14.22,1.68-20.71-1.3-2.66-3.76-5.07-6.49-6.12-.6-.28-.97-.74-.59-.87.48-.18,1.62.39,2.29.07,3.39-1.91,6.97.16,8.69,3.33,3.14,4.43,4.11,9.83,4.12,15.13.04,5.99-2.02,12.07-6.61,16.05-2.16,2.2-5.2,1.98-7.99,1.27-.87-.2-2.7-.43-2.56-1.54l.05-.11Z" fill="#999" stroke-width="0"/><path d="M177.45,144.67c7.88-1.57,11.94-9.74,12.85-17.21.33-6.07-.6-12.61-6.49-15.72-.34-.2-1.41-.76-1.21-1.03.8-.22,2.12.81,2.87,1.31,4.42,3.05,5.55,8.07,5.53,13.07.15,7.42-3.62,16.49-10.83,19.44-.65.29-1.35.57-2.06.6-.6,0-.97-.21-.73-.4l.07-.05Z" fill="#bbb" stroke-width="0"/><path d="M173.26,129.86c-.52-3.45.53-8.2,4.39-8.62,1.24-.07,3.39-.46,4.07.85-.07,1.41-2.87.37-2.95,1.76-.26,2.11-1.1,4.28-1.74,6.29.02.33.87.5,1.07,1.03.16.44-.16.78-.66.82-.44.07-.8.04-.51.26.73.61,2.98-.17,3.26.91-.15,1.23-2.33.74-3.23.74-1.98-.2-3.32-2.02-3.66-3.87l-.04-.18Z" fill="#999" stroke-width="0"/><path d="M175.81,130.4c-.96-3.53.68-10.37,5.44-9.2,4.02,1.45,3.95,7.15,1.74,10.12-.78,1.09-2.06,2.04-2.17,3.46-.5,3.15-1.69,6.35-2.65,9.42-.17.79-1.14,1.52-1.45.43.56-2.86,2.2-6.08,2.67-9.34.05-.33.06-.75-.18-.97-.39-.38-.97-.43-1.45-.78-.98-.66-1.57-1.93-1.89-2.97l-.05-.17Z" fill="#444" stroke-width="0"/><path d="M169.57,130.92c1.98-.11,4.09-.15,6.1-.34.62-.02,1.1.84.47,1.18-1.9.4-4.05.34-5.99.44-.08-.02-.23-.07-.3-.09-.19-.18-.28-.87-.32-1.12l.05-.07Z" fill="#444" stroke-width="0"/><path d="M170.97,113.77c.93,3.87,2.99,7.4,4.48,10.87.04.62-.72.96-1.08.43-1.94-3.38-3.73-7.2-4.63-10.9-.13-.75.81-1.24,1.17-.54l.06.14Z" fill="#444" stroke-width="0"/><path d="M181.49,123.5c1.7-2.12,3.68-4,5.36-6.23.52-.56.87-1.39,1.57-1.74.54-.19,1.04.33.74.85-1.94,2.81-4.34,5.31-6.63,7.85-.5.51-1.43.03-1.11-.6l.07-.13Z" fill="#444" stroke-width="0"/><path d="M184.45,127.08c2.38,2.49,4.46,5.38,6.6,8.11.32.46.58.99.64,1.53-.03,1.46-1.04.42-1.38-.29-1.67-3.08-4.22-5.46-6.54-8.14-.21-.27-.49-.65-.42-.98.08-.44.65-.58.97-.33l.13.09Z" fill="#444" stroke-width="0"/><path d="M169.18,121.78c.38-1.84.59-4.04,1.83-5.56.46-.57,3.03-2.12,3.43-1.17.07.86-.59,1.58-.9,2.46-3.28,7.05-3.31,17.63.69,24.32.9,1.19,1.59,2.71,2.83,3.34,3.34,1.9,7.32.06,9.93-2.13,2.09-1.72,3.49-4.11,4.31-6.57,1.39-2.59,1.75-5.38,1.71-8.33.32-6.56-.83-14.73-7.77-17.64-1.05-.28-2.86-.05-1.28-.98,1.55-.56,2.84-1.39,4.39-2.42.7-.45,1.45-.56,2.08.14,4.8,5.03,7.65,11.76,6.51,18.74.16,2.85.31,5.74-.72,8.46-1.34,4.75-2.87,9.75-6.47,13.37-1.56,1.4-3.09,3.16-5.22,3.49-5.67,1.02-10.78-3.05-13.27-7.9-3.28-6.56-3.36-14.44-2.13-21.44l.04-.18Z" fill="#444" stroke-width="0"/><path d="M172.19,133.6c-.25.45-.95.54-1.5.5-2.25-.34-4.68-.54-6.98-.65-.34,0-.75-.03-1.04.1-.52.18-.48,1-.77,1.46-.22.39-.68.55-1.12.57-1.04,0-2.17.02-3.26.05-1.06,0-2.1-.09-2.48.62-.37.6-.4,1.44-.87,1.98-.81.9-2.15.7-3.29.67-1.17-.02-1.74-.83-2.5-1.49-1.1-.78-2.63-.63-3.9-.94-.7-.11-1.25-.07-1.66.24-1.37,1.46-1.92,1.51-3.29-.06-.79-.89-1.83-1.2-3.14-1.39-1.59-.3-3.68.03-4.74-1.4-.56-1.17-1.26-2.26-1.57-3.52-.19-1.23.57-2.5.6-3.83.02-1.26.05-2.6-.34-3.81-.33-.94-.88-1.75-1.14-2.72-.89-4.53-1.57-9.11-2.16-13.78-.62-3.5-.15-7.69-3.48-9.94-1.34-1.1-2.56-2.41-4.3-2.79-2.24-.47-4.65-.36-6.89-.73-.17-.03-.33-.06-.46-.08-.86-.15-.21-.22-.33-.83-.32-2.18,4.82-.42,6.08-.97,2.66-.81,1.28-5.59,3.26-7.02,1.92-1.05,3-.83,3.98,1.19,2.44,4.1,5.87,7.75,8.34,11.84.99,1.65,2.77,1.21,4.49,1.2,3.72.23,7.42-.47,11.13-.35,3.38-.07,4.82,3.13,6.68,5.36.62.94,2.78,2.22,2.03,3.23-.8.82-4.12.11-3.99.77,2.18,3.17,5.97,4.85,9.35,6.35,1.86.98,3.13,3.13,4.97,4.08.95.37,2.19-1.23,3.15-.65,1.23.83.49,2.74-.21,3.77-2.18,2.09-5.5,3.07-7.67,4.99-1,.93-1.24,2.53-1.26,3.83.02.5.22.95.68,1.19,2.56.77,5.44,1.09,8.08,1.71.61.16,1.63.44,1.52,1.17l-.04.09ZM130.33,101.3c.64,0,5.32.8,3.81-.74-.37-.42-.68-1.06-1.17-1.32-.33-.14-.41-.09-.76-.1-.49.02-1.7-.06-2.09.1-.36.07-.25.44-.2.71.04.32.07.66.12.97.02.27.08.49.19.41l.1-.02ZM134.96,122.63c-.07-.93-.39-2.3-.86-3.21-1.19-2.87-1.96-5.87-2.26-8.97-.11-.66-.17-1.52-.51-2.06-.23-.31-1.4-.4-1.22.23.72,3.21,1.6,6.49,2.12,9.75.14.65.81.44,1.25.91.73.92,1,2.33,1.46,3.37h.01ZM151.73,117.88c.19-.16.25-.27.19-.4-.52-.51-1.06-2.26-1.29-2.99-.11-1.14.65-2.95-.22-3.89-.53-.62-1.3-.32-1.48.44-.43,1.64-.87,3.36-1.33,5-.26,1.47-.42,3.44-2.04,4-.74.25-1.66.04-2.31.5-1.85,1.7-2.47,4.49-3.01,6.84-.01,1.94,1.25,4.15,2.12,5.84.74,1.02,2.12.93,3.37,1.04.68.02,1.09-.05.83-.67-3.42-5.42.66-12.16,5.07-15.63l.1-.08ZM157.74,126.39c0-.72-.34-1.45-.97-1.91-.68-.62-1.19-1.51-1.89-2-.41-.27-.83-.2-1.28-.25-.45-.04-.97-.04-1.35.31-1.05,1.16-1.36,2.9-1.88,4.28-.12.45-.52.81-.77,1.1-.33.74.4,1.55.77,2.31.91,1.33,1.01,3.2,3.09,2.62.38-.05.8.04,1.07-.07.4-.18.69-.71,1.1-.98.56-.41.65-1.09,1.02-1.79.36-.62.94-.93.95-1.78.08-.64.17-1.3.16-1.7v-.14Z" fill="#444" stroke-width="0"/><path d="M151.27,132.81c-4.68-2.57-2.15-14.16,3.93-11.19,4.73,2.77,2.33,13.22-3.79,11.26l-.14-.07Z" fill="#999" stroke-width="0"/><path d="M142.88,120.31c.86-1.11,2.72-1.58,3.56-2.56.96-1.76-.24-11.3,3.33-9.63,1.44.72,1.05,2.59,1.09,3.93-.56,4.1,3.82,1.47,3.34,5.14-.27,1.72-2.41,1.66-3.53,2.62-4.92,2.91-6.64,12.53-.45,15.03.39.18.6.33.47.46-2.22.76-5.97.55-7.95-1.02-3.39-3.57-3.23-10.18.01-13.86l.12-.13Z" fill="#999" stroke-width="0"/><path d="M148.88,99.67c1.63-.04,2.67.85,3.59,2.13.6.77,1.45,2.02,1.22,2.66-.24.62-1.53.45-2.23.54-.97-.05-2.26.34-3.1-.16-1.68-2.14-4.69-5.48.35-5.18h.16Z" fill="#999" stroke-width="0"/><path d="M161,119.47c-.75-.36-1.75-.84-2.37-1.17-.17-.12-.35-.27-.37-.5-.07-.94.95-1.14,1.64-.69.77.46,2.4.97,2.85,1.72.17,1.51-.64,3.19-1.01,4.69-.53.73-3.11,13.2-3.73,10.76.93-3.61,1.96-7.36,3.05-10.91.15-1.14,1.6-3.21.09-3.83l-.15-.07Z" fill="#999" stroke-width="0"/><path d="M116.74,105.46c1.74-5.44,8.65-2.46,12.7-2.3.94.18,1.95.17,2.86.38.41.12.65.38.57.68-.6,1.18-2.42.49-3.48.45-3.24-.09-6.81-1.78-9.92-.46-1.69,1.12-1.7,3.54-.92,5.22.75,1.85,2.43,3.15,4.32,3.73,3.74,1.1,7.65,1.52,11.47,2.11.48.08,1.26.4,1.12.91-.07.24-.39.44-.8.5-1.88.11-3.9-.39-5.78-.68-3.42-.72-7.37-.94-10.01-3.45-1.83-1.69-2.83-4.5-2.18-6.91l.05-.18Z" fill="#444" stroke-width="0"/><path d="M138.33,115.29c-2.8-.27-5.54-.94-8.34-1.21-.69-.07-.68,1.01,0,1.07,2.8.27,5.54.94,8.34,1.21.69.07.68-1.01,0-1.07h0Z" fill="#999" stroke-width="0"/><path d="M137.64,116.92c-2.41-.17-4.75-.9-7.18-.93-.69,0-.69,1.06,0,1.07,2.42.03,4.77.76,7.18.93.69.05.69-1.02,0-1.07h0Z" fill="#999" stroke-width="0"/><path d="M137.82,118.79c-2.33-.4-4.66-.8-6.97-1.31-.67-.15-.96.89-.29,1.03,2.31.51,4.64.91,6.97,1.31.68.12.97-.92.29-1.03h0Z" fill="#999" stroke-width="0"/><path d="M138.32,113.59c-.52-.31-1.19-.22-1.77-.28-.63-.07-1.26-.22-1.87-.37-1.3-.32-2.59-.69-3.94-.7-.69,0-.69,1.07,0,1.07,1.25,0,2.45.36,3.65.66.58.15,1.17.28,1.76.36.3.04.6.07.91.09.23.01.52-.02.72.1.59.35,1.13-.57.54-.93h0Z" fill="#999" stroke-width="0"/><path d="M130.13,109.08c-.1-.85-.61-2.1-.41-3,.42-.22,1.3.07,1.82.07,1.99.33,4.25.19,6.11.79.2.59.22,1.73.25,2.46-.03.6.1,1.37-.29,1.84-.92.68-2.01.47-3.11.31-1.19-.17-2.4-.37-3.56-.63-.66-.18-.63-1.19-.79-1.7l-.03-.15Z" fill="#999" stroke-width="0"/><path d="M125.3,89.31c1.03-3.25,1.56,3.01,1.96,3.73,2.62,10.89,6.58,21.95,8.98,32.87.76,3.29,1.6,6.57,2.87,9.7.77,1.72,2.23,2.54,3.98,2.8,5.39.27,10.93.29,16.2-.57,4.95-1.81,10.09-3.8,15.13-5.68,5.82-2.29,11.92-3.99,17.74-6.22,3.53-1.57,7.46-2.44,9.6,1.68,1.82,3.79.53,7.54-4.03,7.95-4.72.89-9.34,1.57-14.11,2.3-5.12.38-10.27.93-15.34,1.17-7.85,1.09-16.16,2.07-24.09,1.84-2.62-.09-5.72-1.02-6.81-3.67-1.58-3.58-2.25-7.47-3.17-11.17-2.22-8.35-4.43-17-6.47-25.49-.78-2.98-1.53-6.01-2.3-8.94-.18-.7-.33-1.42-.19-2.13l.03-.17Z" fill="#444" stroke-width="0"/><path d="M100.64,163.84s0-.06,0-.09c0,0,.01,0,.02,0,.21.03.41.06.62.09-.21,0-.42,0-.64,0Z" fill="#444" stroke-width="0"/><path d="M105.28,161.56c-12.24-1.89-25.32-13.95-23.75-27.11.26-3.27,1.43-6.39,2.39-9.47,1.55-5.04,4.43-9.82,8.85-12.86,1.23-.97,10.07-4.81,5.76-6.05-3.06-.11-6.17-.52-9.21-1.09-1.1-.18-2.23.05-3.08.78-2.7,2.04-5.08,4.82-6.61,7.91-5.6,8.82-8.23,16.72-5.86,27.09.8,2.98,1.03,6.15,2.35,8.98,1.67,3.05,4.21,5.45,6.56,8.18,1.23,1.49,3.56,2.14,5.09,3.12,3.05,2.04,6.95,2.57,10.56,2.79.9-.06,9.59-.59,7.08-2.23l-.13-.04Z" fill="#999" stroke-width="0"/><path d="M73.29,132.11c.91-7.34,2.55-14.88,7.43-20.6,1.57-1.93,3.26-4.03,5.47-5.21,1.35-.52,1.49.55.53,1.31-1.03.82-2.09,1.66-2.97,2.66-3.94,4.35-6.96,9.43-7.81,15.33-1.76,8.17-2.21,17.25,2.11,24.75,3.25,5.2,8.18,9.69,14.11,11.68.62.22,4.54,1.33,2.12,1.2-4.96-1.13-9.86-3.5-13.56-7-5.52-6.57-8.65-15.36-7.46-23.93l.02-.18Z" fill="#bbb" stroke-width="0"/><path d="M92.09,130.57c.24-.58.75-1.3.95-1.98.2-.76-.35-1.31-.2-2.07.08-.43.32-.88.52-1.3,2.27-4.84,4.64-9.68,7.11-14.44.39-.65,1.25-1.75,1.94-1.53.3.13.42.53.63.8.17.26.4.51.38.98-.01.36-.2.77-.38,1.15-3.46,6.3-5.98,13.53-10.76,18.9-.25.2-.38.05-.24-.38l.05-.14Z" fill="#444" stroke-width="0"/><path d="M86.59,147.75c.83.47,1.42,1.76,2.31,2.43,2.31,2.16,5.35,3.54,8.51,3.78,12.86.64,18.98-14.98,17.39-25.83-.21-1.55-.55-2.98-1.06-4.47-2.1-6.4-7.35-11.42-13.69-13.6-2.02-1.53-.22-2.7,1.59-2.83,3.4-.5,6.96.79,10.1,2.05.96.38,1.53,1.01.82,2.02-.62.89-1.2,2.41.44,2.26,1.34-.1,2.84-1.02,3.83-.27,1.81,1.57,2.91,3.84,4,5.95,3.01,8.91,1.97,20.45-2.39,28.75-2.86,5.32-7.41,10.81-13.98,10.88-3.06-.03-6.1-.22-8.82-1.56-1.41-.8-1.33-1.83-2.76-2.6-2.58-1.53-6.24-3.62-6.32-6.95l.03-.03Z" fill="#999" stroke-width="0"/><path d="M103.06,123.56c2.3-2.89,5.01-5.48,7.11-8.33.15-.17.37-.45.6-.24.38.43,1.03,1.04.54,1.55-2.2,2.81-4.55,5.34-6.93,7.95-.64.62-1.8.04-1.4-.78l.08-.15Z" fill="#444" stroke-width="0"/><path d="M94.33,155.56c6.58-.72,13.48-1.34,17.38-7.58,2.68-3.78,3.68-8.6,4.59-13.08,1.32-6.69-.3-13.74-4.83-18.96-1.61-1.89-3.56-3.51-5.69-4.7-.64-.39-1.06-.89-.81-1.03.19-.14.88.04,1.52.36,3.45,1.82,6.14,4.92,8.2,8.14,3.88,6.49,3.88,14.69,1.49,21.69-1.6,6.93-6.26,13.27-13.48,14.88-1.05.33-9.04,1.93-8.45.33l.08-.06Z" fill="#bbb" stroke-width="0"/><path d="M79.6,126.86c1.68-7.06,5.84-14.09,12.15-17.87.26-.16.8-.53.76-.73-.02-.23-.44-.33-.69-.39-1.39-.31-3.1-.42-4.49-.83-1.66-.72-.1-1.65,1.1-1.56,3.14-.11,6.23.5,9.28.5,2.48-.25,4.82-.68,7.21-.66,2.49.27,5.19.99,7.51,2.11,1.43.85.77,2.43.19,3.64-.51,1.19-1.51,1.11-2.45.62-5.78-2.85-12.76-1.09-17.58,2.85-8.9,6.94-10.57,20.33-6.23,30.34,3.2,8.41,11.89,15.22,20.86,10.76,5.37-3.41,9.37-8.79,10.96-15.03,1.17-4.61,1.72-9.27,1.42-13.94-.36-3.95-1.91-7.78-3.75-11.3-.49-1.12-.15-2.51.79-3.27,1.11-.83,2.21.46,2.87,1.28,2.43,2.99,3.3,6.92,3.91,10.66,1.1,7.11.83,14.59-2.15,21.08-2.1,7.96-8.04,15.87-16.51,17.27-19.05,2.56-29.32-19.07-25.21-35.35l.04-.18Z" fill="#444" stroke-width="0"/><path d="M126.97,134.22c-.03-3.58.23-7.41-.18-10.95-.5-2.57-1.37-5.47-2.26-7.75-1.2-2.46-2.74-4.59-4.38-6.89-.86-1.28-1.33-2.6-2.3-3.6-.99-.96-1.87-1.14-2.85-2.05-.46-.39-.95-.76-1.46-1.08-2.52-1.45-5.54-1.89-8.22-2.7-1.5-.45-3.07-.64-4.64-.52-3.98.25-7.88.41-11.41,2.54-1.07.78-6.34,2.84-3.21,3.97.96.22,1.89.01,2.87-.03,3.24-.27,6.57,2,9.88,1.4,4.72-1.04,10.45-.95,14.4,2.12.42.53-.04,1.2-.5,2.02-.42.91-.96,2.13-.64,2.85.29.67,1.1.45,1.56.1.82-.61,1.94-.67,2.49-1.69.27-.4.57-1.19,1.16-.92.46.22.9,1.01,1.41,1.6,1.27,1.35,2.5,2.9,2.9,4.78,2.32,4.68,3.03,10.04,2.76,15.16.08,1.08.23,2.27,0,3.49-.06.46-.09.99.19,1.33.3.38.86.53,1.34.46,1.46-.23,1.07-2.39,1.09-3.48v-.18Z" fill="#fff" stroke-width="0"/><path d="M113.48,108.68c-.03.11-.36-.06-.44-.18-.06-.1.18-.35.25-.56.67-1.41,1.39-2.86,1.96-4.32.07-.03.21-.1.28-.13.24.08.16.42.07.64-.62,1.49-1.34,3.02-2.07,4.45l-.05.09Z" fill="#ddd" stroke-width="0"/><path d="M114.69,110.77c.84-1.69,1.55-3.83,2.57-5.48.71-.78,1.16.4,1.63.98.19.25.39.5.5.8.38,1.09-.83,2.33-.71,3.44.06.72.55,1.32.99,1.88,1.08,1.32,1.92,2.83,2.72,4.41,3.11,6.1,3.41,13.01,3.03,19.73.01,1.04-.98,1.89-1.34.44.16-3.4.09-6.92-.16-10.25-.18-2-.44-3.81-.81-5.7-.75-2.51-2.17-4.62-3.37-6.83-.61-.97-1.46-2.24-2.52-2.63-.76-.22-1.26.71-2.12,1.01-.25.09-.59.23-.84.15-.43-.08.05-1.07.37-1.8l.07-.15Z" fill="#ddd" stroke-width="0"/><path d="M126.47,89.33c1.51,3.36,2.05,7.27,3.14,10.73.48,1.95,1.16,3.87,1.34,5.89,0,.3-.13.51-.31.51-.37,0-.57-.59-.63-.94-.37-2.39-1.19-4.94-1.85-7.26-.57-2.77-1.45-5.61-2.28-8.28-.11-.37.03-1,.48-.72l.1.08Z" fill="#f5f5f5" stroke-width="0"/><path d="M131.47,74.49c-.4-1.24-1.87-1.4-2.48-.14-2.24,3.99-3.63,8.65-5.55,12.82-1.37,4.34-3.2,8.62-5.2,12.74-.63,1.4-1.86,2.68-2.18,4.09-.03,1.07,1.09,1.34,1.87,1.91.68.43,1.14-.04,1.34-.76,3.19-8.52,7.11-16.91,10.81-25.22.4-1.19.23-2.39.8-3.41.26-.6.71-1.25.62-1.92l-.02-.12Z" fill="#f5f5f5" stroke-width="0"/><path d="M117.85,104.5c4.4-9.69,9.42-19.32,12.9-29.41.4-.91.84-.7.72.21-1.13,4.22-2.91,8.04-4.73,12.08-1.65,5.04-4.45,10.02-6.45,14.84-.64,1.22-.92,3.05-1.94,3.9-.8.26-.83-.83-.56-1.45l.06-.17Z" fill="#ddd" stroke-width="0"/><path d="M106.26,98.26c2.53-3.91,3.88-8.55,6-12.73.48-.75,1.01-1.54,1.79-1.99,1.42-.54,2.16,1.12,1.46,2.25-1.46,3.2-3.12,6.31-4.52,9.54-.57,1.23-1.07,2.47-1.85,3.58-.45.66-.81,1.06-1.63.97-.86.03-1.75-.5-1.31-1.46l.07-.15Z" fill="#f5f5f5" stroke-width="0"/><path d="M107.62,98.97c2.35-4.44,4.88-9.03,6.69-13.67,0-.37-.39-.68-.93-.76-.49-.08-.77-.13-.6-.27.6-.4,2.35-.27,3.14-.15,1.09.73-.78,2.95-1.17,3.85-1.4,2.19-2.54,4.67-3.64,7.04-.76,1.35-1.4,2.83-2.13,4.16-.21.31-.44.61-.89.76-.49.14-.75-.26-.51-.82l.06-.14Z" fill="#ddd" stroke-width="0"/><path d="M91.38,130.18c.67-2.23,2.21-4.19,4.35-5.37,1.13-.63,2.31-.5,3.53-.31,2,.36,4.22.5,6.2,1.02,1.24.49,1.32,1.79,1.14,2.96-.18,3.24-1.08,6.51-1.87,9.66-.4,1.31-1.11,2.64-2.64,2.66-2.36-.07-4.73-1.04-6.97-1.72-3.44-1.19-4.64-5.46-3.79-8.73l.05-.17Z" fill="#999" stroke-width="0"/><path d="M99.26,129.19c1.25-2.36,4.63-5.54,7.34-3.2,3.09,2.74,4.28,7.8,2.01,11.47-1.01,1.71-2.64,2.94-4.49,3.6-.8.31-1.34.8-1.55,1.61-.67,3.2-1.59,6.45-2.7,9.53-.17.44-.43.97-.86,1.09-.48.13-.87-.5-.76-1.25.87-3.46,2.53-6.94,2.64-10.61-.33-1.26-1.75-1.89-2.13-3.18-1.05-2.83-1.05-6.32.42-8.91l.09-.16Z" fill="#444" stroke-width="0"/><path d="M105.37,130.63c.05-.84.59-1.63.93-2.41,1.21-2.43,2.03-4.65,3.04-7.03,1.02-2.16,1.95-4.49,3.04-6.53.5-1.05,1.62-1.26,2.65-1.57,1.22-.32.88.15.49,1.01-1.35,3.35-3.09,6.59-4.38,9.91-.92,2.49-2.12,5-3.39,7.3-.63,1.08-2.31.68-2.38-.51v-.16Z" fill="#f5f5f5" stroke-width="0"/><path d="M126.84,86.05c.54-1.24,1.54-4.04,2.93-1.86,1.46,2.08,2.81,4.2,3.99,6.52.45.88,1.24,1.48,2.22,1.6,3.64.68,7.21-.51,10.86-.16,1.62.4,3.26.62,4.72,1.39,2.25,1.65,4.19,3.86,5.81,6.11,1,1.32,1.7,2.83,3.2,3.65,3.58,2.02,7.15,6.6,11.74,5.26,8.31-3.12,16.38-7.38,23.67-12.58,2.9-1.88,5.68-4,8.2-6.36.39-.32.66-.44.71-.26-.77,2.81-2.77,5.33-4.65,7.56-1.83,2.56-4.15,4.63-6.6,6.63-2.97,2.25-6.12,4.3-9.13,6.49-2.68,1.46-5.87,2.24-8.45,3.92-1.6,1-3.42,1.67-4.97,2.8-.92.64-1.97,1.43-3.12,1.42-.73,0-1.39-.44-1.88-.99-1.28-1.47-2.48-3.31-3.99-3.85-3.01-.62-5.36-2.7-7.81-4.41-.46-.39-1.17-1.12-.62-1.66.54-.52,2.24-.25,3.09-.6,1.48-.51-1.92-2.99-2.32-3.97-.72-1.41-1.3-2.69-2.68-3.57-2.02-1.68-5.1-1.59-7.67-1.34-2.59.15-5.29.1-7.59.18-1.04.07-1.97-.39-2.66-1.19-2.09-2.4-4.47-4.69-6.1-7.51-.56-.93-1.23-1.96-.97-3.07l.04-.16Z" fill="#ddd" stroke-width="0"/><path d="M133.12,96.93c.6-.02.92.68,1.43.9,2.57.7,5.16.34,7.76.68.81.06-.19.07-.46.08-2.02.04-4.06.03-6.07.11-.64,0-1.04-.39-1.68-.66-.44-.18-1.18-.62-1.06-1.09l.09-.02Z" fill="#bbb" stroke-width="0"/><path d="M150.85,98.42c0,.12.03.24.07.36-.21-.11-.44-.2-.69-.27.23.01.44-.02.62-.09Z" fill="#bbb" stroke-width="0"/><path d="M119.23,66.84c.12-1.33-.93-2.5-2.27-2.86-2.33-.8-4.89-1.36-7.29-.5-1.59.24-2.61,1.19-3.47,2.53-.81,1.08-1.57,2.07-2.25,3.29-.38.67-.77,1.31-1.19,1.95-1.75,2.54-1.32,7.07,1.52,8.84,1.38.75,3.51.73,5.2.81,1.02-.23,3.6,1.09,3.3-.78-.31-.93-.96-1.8-.94-2.84.15-2.88,2.11-5.64,4.43-7.28.97-.99,2.85-1.47,2.95-3.01v-.15Z" fill="#fff" stroke-width="0"/><path d="M105.42,61.14c1.37-.51,3.14-.14,4.53-.02.16.02.47.02.37.21-.02.05-.39.28-.49.39-.34.31-.83,0-1.31.02-.89-.19-1.89.43-2.73.26-.38-.08-.76-.45-.47-.78l.09-.08Z" fill="#444" stroke-width="0"/><path d="M109.4,62.2c4.2-4.35,9.46-10.6,16.18-9.39,3.04.51,5.63,2.22,7.58,4.46.42.36.74.72.71,1.08-1.28,3.05-4.98,3.86-7.65,5.23-2.32,1.09-4.53,2.54-6.73,3.94-.29.17-.63.34-.77-.06-.13-.34-.19-1.06-.61-1.5-.37-.43-.9-.68-1.44-.85-2.13-.56-4.22-.79-6.51-1.03-1.5-.11-2.77-.11-.89-1.77l.12-.12Z" fill="#444" stroke-width="0"/><path d="M204.35,88.35c-.53-.47-1.42-.29-2.02.08-1.38.92-3.14,2.18-4.81,2.8-4.59,2.09-9.29,4.5-13.77,6.67-2.96,1.89-6.44,2.6-9.87,2.87-5.7.99-8.61-.75-10.98-5.93-1.21-1.86-2.06-3.66-3.47-5.31-.96-1.97-2.13-3.93-3.17-5.78-4.11-6.47-11.86-9.99-19.42-9.39-1.96.26-4.51-.18-5.63,1.72-1,2.21-2.44,4.28-2.49,6.7.48,3.52,2.72,7.35,5.52,9.54,1.5.8,3.33.47,5.01.61,4.05.29,8.46-.92,12.11,1.43,2.98,2.14,5.12,5.34,7.61,8.03,1.97,2.57,4.58,4.51,6.85,6.78,2.9,3.41,7.17.65,10.51-.45,2.09-.71,4.41-1.5,6.38-2.75,2.78-1.78,24.08-15.13,21.74-17.55l-.08-.08Z" fill="#fff" stroke-width="0"/><path d="M192.58,83.57c2.23-3.41,7.3-1.36,10.64-.72,1.85.63.98,3,.66,4.4-.21.94-.33,2.12-1.05,2.73-.77.75-2.23.73-1.69-.77.32-1.45,2.56-4.94.66-5.78-.9-.36-1.92-.47-2.87-.63-1.36-.18-2.82-.56-3.79.03-.58.26-.93,1.01-1.54,1.14-.36.11-1.03.06-1.02-.3v-.09Z" fill="#444" stroke-width="0"/><path d="M136.21,66.84c-.45,2.12-2.07,3.61-3.82,4.79-3.6,2.86-7.94,4.75-11.4,7.63,2.1-.71,4.07-2.44,5.98-3.78,1.03-.76,2-1.49,1.48-.25-1.06,2.19-2.07,4.28-2.95,6.49-.24.58-.49,1.27-1.03,1.59-.95.43-2.19.26-3.25.41-5.28.32-10.62.62-15.73-.52-1.14-.14-1.69-1.66-.74-2.35.68-.91,10.71,1.67,8.32-.78-1.44-1.82-.81-4.83.07-6.82,1.82-2.86,4.53-4.38,7.08-6.29,2.41-1.73,5.35-3.25,7.79-4.47,1.22-.49,2.4-1.59,3.78-1.3,2.61.48,5.17,2.46,4.44,5.48l-.04.18ZM119.58,80.72c-.32-.38-1.11-.16-1.59-.13-.21.02-.08-.08-.11-.14-.34,0-.55.21-.91.24-.41.09-1.35.06-1.53.4,1.26-.1,2.87,0,4.13-.32l.02-.05Z" fill="#fff" stroke-width="0"/><path d="M199.58,85.28c-1.32-1.47-3.28-1.39-5.13-1.38-6.71.32-13.6.22-20.3,1.15-1.66.24-2.97,1.14-4.4,1.9-2.03,1.06-4.48,1.02-6.73.9-1.43.09-2.87-.08-4.01-.9-1.2-.35.35,1.82.53,2.26.81,1.57,1.92,3.48,2.57,4.83.76,1.29,1.99,3.55,2.98,5.04,3.07,3.06,7.71,1.76,11.54,1.24,6.63-1.3,12.64-4.48,18.39-7.95,1.71-1.17,4.26-1.48,5.61-3.12.71-1.23.07-2.91-.91-3.85l-.12-.13Z" fill="#444" stroke-width="0"/><path d="M198.44,84.32c-5.25-1.07-10.36.34-15.56.41-2.73-.13-5.3.1-7.99.25-.28.02-1.03-.11-1.09.06,5.1.75,10.5,1.66,15.66,1.85,3.06-.32,6.27-.99,9.31-1.58.62-.2.61-.75-.18-.95l-.15-.04Z" fill="#999" stroke-width="0"/><path d="M167.29,100.55c.57-.29,1.59.11,2.31.09,2.28.38,4.57-.63,6.63.59,1.49,1.13,3.4,1.2,5.08.44,4.54-2.03,8.98-4.02,13.36-6.3.77-.5,4.01-2.19,1.96-.05-5.21,3.61-10.89,6.52-16.59,9.17-3.72,1.53-7.96-.6-11.16-2.59-.71-.47-1.6-1.1-1.59-1.31v-.05Z" fill="#ddd" stroke-width="0"/><path d="M133.06,81.44c.59-.92,1.96-1.2,2.96-1.56,3.92-.99,8.01-2.47,12.09-2.67.72.07,1.51.5,1.88.91,1.05,1.08-3.28,1.08-3.95,1.4-3.13.61-6.23,1.46-9.23,2.54-.96.3-1.54.97-.86,1.98.99,1.42,1.9,3.46,3.49,4.15,2.83.48,6.03-.21,8.94-.15,2.32.05,4.79-.29,7,.52,2.02.94,3.35,3.04,4.92,4.59,1.81,1.93,3.51,4.4,5.24,6.25.1.15.25.39.27.56-.05.71-1.42-.59-1.72-.92-2.09-2.15-4.15-4.35-6.28-6.47-1.15-1.07-2.11-2.33-3.52-2.78-4.18-.61-8.52.1-12.77.15-.96.05-1.97.13-2.86-.24-2-.9-2.99-3.43-4.27-5.17-.7-1.02-1.68-2.13-1.37-2.96l.05-.13Z" fill="#ddd" stroke-width="0"/><path d="M142.75,82.21c3.35-.7,6.73-1.27,10.06-1.55,1.32.34,2.65,1.27,3.3,2.58.34.71.84,1.29,1.42,1.8.75.93-.92.65-1.43.68-3.22.01-6.47-.41-9.68-.28-1.78-.1-3.79.49-5.46-.17-.59-.43-1.3-1.38-.98-2.1.42-.7,1.77-.7,2.59-.92l.17-.04Z" fill="#ddd" stroke-width="0"/><path d="M204.55,89.48c-1.72,2.49-3.27,5.53-5.55,7.63-3.2,3.11-6.73,6.21-10.36,8.94-5.98,4.19-12.96,7.12-19.29,10.7-2.49,1.46-3.56-2.1-5.27-3.29-.64-.55-1.45-.81-2.24-1.06-1.7-.53-2.89-1.76-4.38-2.83-.38-.39-2-1.23-1.24-1.78,1.59-.54,2.8-.93,1.41-2.78-1.5-1.85-3.31-3.93-4.95-5.84-.95-1.19-2.39-1.77-3.89-1.85-3.47-.22-7.34-.21-10.83-.03-1.02.05-2.1.09-3.04-.34-.76-.34-1.39-.98-1.91-1.65-1.82-2.65-3.91-5.34-5.43-8.18-.23-.31-.46-.89-.77-.79-.19.27-.03,1,.17,1.39,1.37,2.68,3.32,5.08,5.03,7.64,1.35,2.24,3.37,3.21,5.97,2.89,3.05-.34,6.21-.25,9.29-.15.98.04,1.99.06,2.92.38,1.42.48,2.37,1.76,3.28,2.88,1.22,1.8,3.06,3.14,3.86,4.89-.09,1.44-6.35-.34-2.88,2.37,1.57,1.39,3.2,3.06,5.16,4.07,1.85.8,3.82.73,5.09,2.63,1.45,1.3,2.16,3.99,4.31,2.42,7.47-4.3,15.68-7.41,22.34-12.88,4.79-4.21,10.56-8.4,13.25-14.51.22-.61.23-1.02.02-.91l-.06.04Z" fill="#fff" stroke-width="0"/><path d="M128.04,74.69c-3.14,2.55-6.95,4.5-10.83,5.62-3.92.92-7.9.94-11.77.47-.52-.16-1.35.01-1.45.54-.06.23.09.36.42.42,1.44.08,3.11.42,4.6.53,4.72.47,9.66-.62,14.08-2.25.68-.25,1.91-.53,2.18.28.03,2.22-3.3,2.23-4.93,2.52-4.69.53-9.99.53-14.73-.14-.8-.18-1.68.1-.41.54,5.47.99,11.23,1.31,16.79.51,1.82-.04,3.6-.73,4.32-2.54.14-.99,3.24-6.64,1.82-6.52l-.11.03Z" fill="#ddd" stroke-width="0"/><path d="M112.43,79.21c.6-.32,1.39-.04,2.08-.1,1.86,0,3.72-.94,5.27-1.97,5.31-3.52,11.18-6.42,15.95-10.7,1.03-.68.23,1,0,1.47-1.17,2.31-3.36,3.78-5.37,5.3-4.11,3.1-8.3,6.42-13.29,7.88-1.6.16-4.2.39-4.84-1.42,0-.14.03-.27.12-.38l.09-.07Z" fill="#ddd" stroke-width="0"/><path d="M119.63,70.02c2.93-3.78,7.59-5.68,11.68-8,.73-.55,2.52-.85,2.8.09,0,.13-.11.26-.29.38-3.53,1.88-7.31,3.5-10.4,6.08-.25.24-.47.5-.63.78-.54.86-.08,1.93-.83,2.62-1.82,1.56-3.46.38-2.41-1.8l.07-.15Z" fill="#ddd" stroke-width="0"/><path d="M123.57,69.43c3.27-2.37,6.9-4.45,10.43-6.41,1.03-.11.92,1.17.19,1.55-2.92,1.94-5.98,3.6-8.93,5.44-.44.25-.86.8-1.39.67-.42-.12-.59-.75-.38-1.11l.08-.14Z" fill="#ddd" stroke-width="0"/><path d="M125.51,90.39c.49.26.68,1.48.88,2.12,3.23,12.46,6.58,24.88,9.73,37.35.88,3.58,2.04,8.14,5.83,9.57,4.83,1.05,9.83,1.12,14.7.37,10.34-1.54,20.89-2.52,31.21-4.02,4.14-.58,8.35-1.28,12.47-1.91.53-.06.9-.01.91.15-.33.77-2.49,1.16-3.46,1.32-6.16,1.01-12.08,2.42-18.25,2.61-11.06.21-22.01,3.14-33.07,2.86-9.27-.18-9.04-2.37-11.41-10.46-3.28-12.63-6.58-25.16-9.6-37.76-.19-.61-.4-2.01.01-2.22h.06Z" fill="#999" stroke-width="0"/><path d="M83.85,138.31c4.15.69,8.4-.17,12.55-.02.68.27.74,1.23,0,1.44-2.13.4-4.32.37-6.48.49-2.19.03-4.48.2-6.61-.38-.23-.1-.41-.26-.48-.48-.17-.5.37-1.05.86-1.05h.17Z" fill="#444" stroke-width="0"/><path d="M90.84,114.53c1.24,4.85,3.63,9.37,5.71,13.7.17.76-.69,1.41-1.26.84-2.57-4.22-4.69-9.05-5.99-13.86-.24-.99.93-1.79,1.47-.82l.07.15Z" fill="#444" stroke-width="0"/><path d="M108.45,132.01c.86,1.89,8.84,12.41,5.84,13.11-.57.08-.87-.63-1.06-1.08-1.35-3.84-3.89-7.18-5.99-10.78-.74-.99.04-2.21,1.09-1.37l.11.13Z" fill="#444" stroke-width="0"/><path d="M98.98,143.87c2.71,1.51,6.19.82,8.63-.95,4.48-3.07,6-9.3,4.24-14.31-.26-.67-.58-1.94-1.2-2.18-.42-.08-.94,1.04-.93,1.92.29,2.16,1.22,4.41.74,6.65-.61,6.08-9.74,11.03-12.76,3.83-1.85-4.47-1.04-10.39,2.83-13.48,1.24-1,2.88-1.69,4.47-1.24.8.17,1.57.79,2.12.87.55.12,1-.49.9-1.18-.35-1.54-2.78-2.13-4.28-2.26-10.33-.21-12.85,17.71-4.93,22.25l.16.09ZM103.67,122.6c.11-.68,1.12-.52,1.19.11.01.84-1.24.81-1.2-.03v-.09ZM98.73,124.26s.02-.1.02-.14c.01-.03.03-.06.04-.09,0-.04.02-.09.04-.12.02-.07.06-.12.12-.17.05-.05.11-.09.18-.11.07-.03.14-.05.21-.04.05,0,.1.02.14.02.09.03.17.08.24.15.09.11.15.24.15.39,0,.08-.01.15-.03.22,0,0,0,.01,0,.02-.02.05-.04.1-.07.14,0,0,0,.01-.01.02-.03.04-.07.09-.1.12-.05.05-.11.09-.18.11-.07.03-.14.05-.21.04-.08,0-.15-.02-.21-.05-.07-.02-.12-.06-.17-.12-.09-.11-.16-.25-.15-.39ZM111.99,130.58c-.02.07-.06.12-.12.17-.05.05-.11.09-.18.11-.07.03-.14.05-.21.04-.05,0-.1-.02-.14-.02-.09-.03-.17-.08-.24-.15-.03-.04-.05-.08-.08-.11-.05-.09-.07-.18-.07-.28v-.05c0-.08.02-.15.06-.21.02-.07.06-.12.12-.17.05-.05.11-.09.18-.11.07-.03.14-.05.21-.04.05,0,.1.02.14.02.09.03.17.08.24.15.03.04.05.08.08.11.05.09.07.18.07.28v.05c0,.08-.02.15-.06.21ZM110.7,135.99c0-.08.02-.15.05-.21.02-.07.06-.12.12-.17.05-.05.11-.09.18-.11.07-.03.14-.05.21-.04l.14.02c.09.03.17.08.24.15.03.04.05.08.08.11.05.09.07.18.07.28v.05c0,.08-.02.15-.06.21-.02.07-.06.12-.12.17-.05.05-.11.09-.18.11-.07.03-.14.05-.21.04-.05,0-.1-.02-.14-.02-.09-.03-.17-.08-.24-.15-.03-.04-.05-.08-.08-.11-.05-.09-.07-.18-.07-.28v-.05ZM107.18,141.37s.02-.1.02-.14c.02-.06.05-.11.08-.15,0,0,0,0,0-.01.02-.07.06-.12.12-.17.05-.05.11-.09.18-.11.07-.03.14-.05.21-.04l.14.02c.09.03.17.08.24.15.03.04.05.08.08.11.05.09.07.18.07.28,0,.12-.04.24-.11.34,0,0,0,.01-.01.02-.03.04-.06.08-.09.11,0,0,0,0-.01.01-.05.05-.11.09-.18.11-.07.03-.14.05-.21.04-.08,0-.15-.02-.21-.05-.07-.02-.12-.06-.17-.12-.03-.04-.05-.08-.08-.11-.05-.09-.07-.18-.07-.28ZM102.51,143.69c0-.08.02-.15.05-.21.02-.07.06-.12.12-.17.04-.03.08-.05.11-.08.09-.05.18-.07.28-.07.05,0,.1.02.14.02.09.03.17.08.24.15.02.02.03.03.05.05.05.05.09.11.11.18.03.07.05.14.04.21,0,.08-.02.15-.05.21-.02.07-.06.12-.12.17-.04.03-.08.05-.11.08-.09.05-.18.07-.28.07-.05,0-.1-.02-.14-.02-.09-.03-.17-.08-.24-.15-.02-.02-.03-.03-.05-.05-.05-.05-.09-.11-.11-.18-.03-.07-.05-.14-.04-.21ZM97.94,141.01c.7.02.67,1.12-.04,1.09s-.67-1.12.04-1.09ZM96.93,127.68c-.07-.02-.12-.06-.17-.12-.09-.11-.16-.25-.15-.39l.02-.14s.03-.06.04-.09c0-.04.02-.09.04-.12.02-.07.06-.12.12-.17.05-.05.11-.09.18-.11.07-.03.14-.05.21-.04.05,0,.1.02.14.02.09.03.17.08.24.15.09.11.15.24.15.39,0,.08-.01.15-.03.22,0,0,0,.01,0,.02-.02.05-.04.1-.07.14,0,0,0,.01-.01.02-.03.04-.07.09-.1.12-.05.05-.11.09-.18.11-.07.03-.14.05-.21.04-.08,0-.15-.02-.21-.05ZM95.4,137.35c.14-.84,1.29-.49,1.12.28-.17.69-1.13.44-1.12-.25v-.04ZM95.09,131.56c0-.08.02-.15.05-.21.02-.07.06-.12.12-.17.05-.05.11-.09.18-.11.07-.03.14-.05.21-.04l.14.02c.09.03.17.08.24.15.03.04.05.08.08.11.05.09.07.18.07.28v.05c0,.08-.02.15-.06.21-.02.07-.06.12-.12.17-.05.05-.11.09-.18.11-.07.03-.14.05-.21.04l-.14-.02c-.09-.03-.17-.08-.24-.15-.03-.04-.05-.08-.08-.11-.05-.09-.07-.18-.07-.28v-.05Z" fill="#ddd" stroke-width="0"/><path d="M135.16,62.51c2.87-2.88,6.52-5.89,10.92-5.59.8.08,2.51-.31,2.55.86-.1,1-1.18,1.32-2.08,1.26-1.33.02-2.75.04-3.89.54-2.43.57-3.84,2.59-5.53,4.24-.85.92-2.47-.17-2.03-1.18l.07-.13Z" fill="#f5f5f5" stroke-width="0"/><path d="M181.99,134.88c-.91-.16-11.45-.29-10.04-1.66,3.71-2.43,8.31-3.24,12.5-4.63,3.16-1.32,6.42-2.51,9.7-3.48,1.21-.24,3.46-1.3,3.82.52.29,1.18.6,2.5-.61,3.32-1.07.81-2.21,1.55-3.35,2.28-1.66,1.03-3.31,2.05-5.07,2.84-2.07.93-4.64.86-6.77.81h-.18Z" fill="#ddd" stroke-width="0"/><path d="M197.79,126.05c-.28-1.36-2.5.39-3.32.56-2.7,1.22-5.58,2.06-8.23,3.23-2.11.9-4.3,1.93-6.41,2.75-.84.46-2.64.53-2.49,1.72.52.86,1.9.46,2.73.08,2.25-.94,4.61-1.97,6.86-2.97,2.82-1.24,5.91-2.13,8.71-3.43.81-.43,2.28-.64,2.18-1.8l-.02-.14Z" fill="#f5f5f5" stroke-width="0"/><path d="M189.36,106.4c.23-.65,1.35-1.14,2.01-1.57,1.06-.82,2-1.75,3.23-2.7,4.2-2.44,5.19,13.51,7.4,15.96.61,1.17,2.05,2.78-.38,2.64-2.14.28-4.59-.49-5.22-2.75-1.75-3.74-3.65-7.78-6.7-10.76-.25-.21-.42-.42-.38-.7l.03-.12Z" fill="#444" stroke-width="0"/><path d="M105.16,131.06c.78-2.56,2.63-4.75,3.22-7.41.88-3.11,2.05-6.21,3.66-9,.46-.9,1.15-1.24,2.14-1.55.98-.37,1.71-.43,1.39.69-.89,2.72-2.21,5.11-3.33,7.78-1.66,3.45-3.11,7.09-4.76,10.52-.39.38-1.28.59-1.81.54-.49-.05-.63-.79-.52-1.41l.03-.16Z" fill="#444" stroke-width="0"/><path d="M104.69,132.01c.39-1.87,2.15-1.17,1.72.58-.62,1.63-1.88,1.05-1.73-.49v-.1Z" fill="#999" stroke-width="0"/><path d="M108.47,63.79c-.9.43-1.51,1.44-2.17,2.19-1.67,2.04-3.28,4.29-4.13,6.84-1.02,2.16-.03,7.16,2.64,7.42.08-.75-.57-1.89-.47-2.82.17-4.7,3.03-9.69,7.14-11.94.33-.28,2.55-1.01,1.73-1.33-1.3-.24-3.38-.5-4.6-.39l-.14.04Z" fill="#f5f5f5" stroke-width="0"/><path d="M124.42,76.53c.88-.59,2.17-1.16,3.16-1.7.47-.25.87.18.81.68-.31,1.41-1.22,2.36-1.55,3.86-.1.29-.25.79-.46.96-.2,0-.03-.62-.1-.8-.15-1.52-1.65-2.28-3.07-2.09-.05-.18.92-.68,1.09-.84l.12-.08Z" fill="#444" stroke-width="0"/><path d="M148.91,61.82c1.64.05,3.98.65,5.16-.36.43-.39.55-1.15,1.18-1.28,1.27.01,2.66,0,3.97-.27,2.39.12,4.93.51,7.4.37,1.83-.12,1.93-2.74-.02-2.87-3.65-.62-6.95-.23-10.54-.93-.7-.17-1.04-.75-1.86-.88-1.1-.16-2.31.16-3.3.03-.76-.09-1.76-.35-2.23.45-.63,1.27-.49,2.82-.64,4.21-.03.6.1,1.29.73,1.5l.15.05Z" fill="#444" stroke-width="0"/><path d="M177.72,115.78c-.08-.79-.45-1.86-.51-2.63.76-.42,1.67-.99,2.56-1.18.28-.07.57-.16.87-.16.1.06.05.33.07.49-.03.45.08.96,0,1.36-.82.8-1.97,1.53-2.93,2.15l-.06-.03Z" fill="#ddd" stroke-width="0"/><path d="M178.02,118.22c0-.4-.18-1.18-.11-1.58.87-.61,2-1.44,2.85-2.01.09.02.05.33.08.48,0,.34.14.73.06,1.05-.76.8-1.92,1.47-2.83,2.08l-.06-.02Z" fill="#ddd" stroke-width="0"/><path d="M178.23,120.46c0-.36-.17-1.01-.08-1.37.84-.63,1.99-1.38,2.84-1.97.09,0,.06.27.09.4,0,.41.15.87.09,1.28-.7.79-1.93,1.29-2.88,1.69l-.06-.03Z" fill="#ddd" stroke-width="0"/><path d="M178.82,126.56c-.07-1.61-.38-3.5-.48-5.14.17-.51,1.02-.55,1.44-.85.46-.16,1.07-.73,1.48-.77.13.04.14.39.17.64.14,1.64.48,3.45.39,5.04-.6.77-2,1.15-2.94,1.15l-.08-.06Z" fill="#999" stroke-width="0"/><path d="M180,127.18c.15-.09.71-.21.94-.33.22-.06.52-.3.65-.26.18.31.05.97.07,1.37-.05.34.06.87-.11,1.14-.33.27-1.24.62-1.62.26-.1-.64,0-1.5.07-2.09v-.07Z" fill="#999" stroke-width="0"/><path d="M130.47,115.54c2.63.15,5.37,1.08,8.04,1.33,1.62.46,3.36-.27,3.98-1.81,1-2.39,2.08-7.03-.29-8.19-3.03-1.02-6.36-1.13-9.49-1.77-1-.18-2.43-.37-2.23-1.35.15-.26.54-.35.87-.36,2.34.15,4.88.65,7.23,1.09,1.83.51,4.48.57,5.67,2.02,1.3,2.57.47,9.15-1.76,11.04-2.11,1.89-5.15.49-7.63.26-.81-.23-7.04-.92-4.54-2.24l.15-.03Z" fill="#999" stroke-width="0"/><path d="M200.53,104.89c.04-1.07-.36-2.47-.38-3.54.48-.21,1.55.2,2.16.24,1.61.24,2.27.32,2.24,2.1.11,1.19.84,4.2-.44,4.51-.82.17-2.3.16-2.9-.45-.29-.78-.47-1.9-.66-2.69l-.02-.16Z" fill="#fb0" stroke-width="0"/><path d="M198.58,100.6c.38-.46,1.47-.02,1.98-.12.26-.05.46-.27.72-.46.8-.49,1.8-.56,2.73-.36,1.04.21,2.49.9,2.27,2.08-.68,2.22-3.89,1.9-5.26.64-.88-.62-3.24.11-2.51-1.66l.07-.11Z" fill="#444" stroke-width="0"/><path d="M201.17,89.32c-.08-2.55-.89-4.9-3.59-5.56-1.55-.38-3.2-.25-4.78-.23-2.44.04-4.87.16-7.3.29s-4.87.27-7.3.33c-2.25.06-4.46.14-6.54,1.13-.8.38-1.51.94-2.28,1.37-1.2.67-2.38.78-3.74.78-2.39,0-5.24.26-7.14-1.43-.52-.46-1.28.3-.76.76,1.41,1.25,2.88,1.55,4.7,1.62,2.04.08,4.38.45,6.33-.27,1.76-.65,3.14-1.94,4.98-2.45,2.36-.65,4.94-.45,7.37-.56,4.54-.21,9.07-.53,13.61-.54,1.26,0,2.78,0,3.86.76,1.27.88,1.45,2.57,1.5,3.99.02.69,1.09.69,1.07,0h0Z" fill="#444" stroke-width="0"/><path d="M126.6,88.22c1.18,2.35,2.46,4.67,4.09,6.75,1.28,1.64,2.95,3.93,5.22,4.03,2.93.13,5.86-.05,8.79-.06,1.39,0,2.79,0,4.18.1.84.05,1.74.04,2.45.54.58.4,1.02,1.03,1.46,1.57.75.92,1.52,1.83,2.28,2.74.32.38.64.76.96,1.13.25.3.58.58.71.96.1.29.32.22-.2.25-.93.05-3.53-.32-3.7,1.11-.07.61.46,1.05.88,1.38.94.72,1.91,1.39,2.85,2.11.99.77,2.03,1.58,3.16,2.12s2.48.67,3.48,1.49c1.4,1.15,2.61,4.03,4.7,4.02,1.26,0,2.64-1.07,3.68-1.66,1.38-.77,2.74-1.57,4.16-2.28.62-.31.07-1.23-.54-.93-1.15.58-2.27,1.21-3.38,1.84-.52.29-1.04.59-1.56.87-.63.34-1.44.96-2.16,1.04-1,.12-1.92-1.16-2.48-1.84-.61-.73-1.19-1.51-1.95-2.09s-1.71-.8-2.62-1.12c-1.28-.45-2.41-1.24-3.48-2.06-.94-.71-1.86-1.44-2.81-2.12-.19-.14-.89-.45-.66-.69.18-.2,1.19-.08,1.45-.08,1.15-.02,2.9-.13,2.23-1.72-.31-.74-.95-1.29-1.45-1.89-.81-.96-1.61-1.93-2.4-2.9-.61-.74-1.19-1.6-1.98-2.16-.92-.66-1.97-.64-3.06-.71-2.79-.17-5.59-.07-8.39-.02-1.51.03-3.07.11-4.59-.01s-2.68-1.61-3.64-2.71c-1.96-2.24-3.41-4.88-4.74-7.53-.31-.62-1.24-.07-.93.54h0Z" fill="#444" stroke-width="0"/><path d="M131.19,74.95c-1.96,5.17-4.2,10.22-6.31,15.33s-4.13,10.38-6.62,15.4c-.31.62.62,1.16.93.54,2.46-4.97,4.44-10.1,6.55-15.22s4.48-10.45,6.49-15.77c.24-.65-.79-.93-1.03-.29h0Z" fill="#444" stroke-width="0"/><path d="M128.36,74.07c-4.56,9.81-7.86,20.17-12.91,29.76-.32.61.6,1.15.93.54,5.04-9.59,8.34-19.95,12.91-29.76.29-.62-.64-1.17-.93-.54h0Z" fill="#444" stroke-width="0"/><path d="M131.94,75.67c.15-.18.25-.37.25-.61,0-.16-.04-.34-.1-.49-.12-.3-.31-.58-.52-.82-.19-.21-.43-.32-.67-.45-.1-.06-.19-.13-.29-.19-.14-.08-.3-.15-.45-.19-.27-.07-.6.09-.66.37s.08.58.37.66c.04.01.09.03.13.04.06.02-.11-.05-.03-.01.02,0,.04.02.05.03.08.04.15.1.23.15.15.1.32.16.47.26.02.01.07.05,0,0-.08-.06,0,0,.01.02.03.03.06.07.1.11.04.05-.06-.09-.03-.03.02.02.03.04.05.07.03.04.06.08.08.12.05.08.1.16.15.24.03.06-.03-.1-.02-.04,0,.03.02.05.02.08.01.06.02.11.04.17l-.02-.14s0,.06,0,.09l.02-.14s-.01.08-.02.08l.03-.08s-.02.03.03-.04c-.09.11-.16.23-.16.38,0,.13.06.29.16.38.2.18.57.23.76,0h0Z" fill="#444" stroke-width="0"/><path d="M115.97,83.83c-2.61,5.19-5.08,10.45-7.65,15.67-.3.62.62,1.16.93.54,2.57-5.21,5.04-10.48,7.65-15.67.31-.61-.62-1.16-.93-.54h0Z" fill="#444" stroke-width="0"/><path d="M112.31,83.71c-2.24,5.07-4.42,10.17-6.94,15.11-.31.61.61,1.16.93.54,2.52-4.94,4.7-10.04,6.94-15.11.28-.63-.65-1.17-.93-.54h0Z" fill="#444" stroke-width="0"/><path d="M115.52,112.66c-2.86,6.23-5.2,12.68-8.2,18.84-.3.62.62,1.16.93.54,3-6.16,5.34-12.62,8.2-18.84.29-.62-.64-1.17-.93-.54h0Z" fill="#444" stroke-width="0"/><path d="M106.54,126.35c-.51,1.04-1,2.09-1.56,3.11-.13.25-.07.6.19.73s.59.07.73-.19c.56-1.02,1.05-2.07,1.56-3.11.12-.25.08-.59-.19-.73-.24-.13-.6-.08-.73.19h0Z" fill="#444" stroke-width="0"/><path d="M112.04,113.63c-1.9,4.21-3.65,8.48-5.5,12.72-.27.63.65,1.17.93.54,1.85-4.23,3.59-8.51,5.5-12.72.28-.62-.64-1.17-.93-.54h0Z" fill="#444" stroke-width="0"/><path d="M116.37,103.56c-6.02-4.88-14.14-6.02-21.59-4.51-1.85.37-3.74.88-5.47,1.66-1.03.47-2.01,1.05-2.96,1.65-.68.42-1.72.88-2.06,1.67-.54,1.24.93,1.67,1.85,1.75,2.14.18,4.28.28,6.41.53,5.58.64,11.11,1.91,16.2,4.33.62.3,1.16-.63.54-.93-7.09-3.38-14.84-4.48-22.61-4.98-.26-.02-.86.07-1.07-.1-.34-.28.43-.8.71-.99.89-.57,1.79-1.12,2.73-1.61,1.59-.83,3.36-1.34,5.1-1.75,3.36-.79,6.88-1.01,10.31-.58,4.06.52,7.97,2.03,11.16,4.61.53.43,1.29-.32.76-.76h0Z" fill="#444" stroke-width="0"/><path d="M123.79,138.04c.82.17,1.86.59,2.68.19.99-.48.88-1.78.93-2.7.23-3.85.15-7.79-.35-11.62-.86-6.48-3.71-12.74-7.95-17.7-.45-.53-1.2.24-.76.76,3.66,4.29,6.14,9.52,7.29,15.03.62,2.95.77,6.02.8,9.03.02,1.58-.02,3.16-.12,4.74-.05.7.01,1.52-.84,1.53-.45,0-.97-.2-1.4-.29-.67-.14-.96.9-.29,1.03h0Z" fill="#444" stroke-width="0"/><path d="M174.54,115.14c2.16-1.32,4.53-2.19,6.82-3.25s4.4-2.45,6.49-3.85c3.71-2.49,7.27-5.31,10.55-8.34,1.51-1.39,2.93-2.89,4.12-4.57,1.04-1.46,2.32-3.39,2.51-5.22.31-3.05-2.93-2.04-4.5-1.04-4.35,2.76-9.14,4.71-13.7,7.08s-9.01,4.19-14.18,4.29c-2.08.04-5.17.17-6.78-1.35-1.33-1.25-2.26-3.27-3.12-4.85-2.15-3.94-3.91-8.11-6.71-11.65s-6.7-6.31-11.03-7.64-8.85-1.09-13.18-.03c-.67.16-.39,1.2.29,1.03,3.91-.96,8-1.21,11.92-.16s7.26,3.24,9.98,6.1c3.05,3.2,4.9,7.32,6.91,11.21.87,1.67,1.8,3.3,2.79,4.9.74,1.21,1.64,2.4,3.03,2.88,1.87.64,4.16.69,6.12.63,2.07-.06,4.15-.37,6.16-.9,4.48-1.18,8.43-3.63,12.58-5.63,2.13-1.03,4.26-2.04,6.34-3.16,1.53-.83,3.09-2.14,4.77-2.65,2.37-.71.73,2.52.21,3.48-.98,1.85-2.29,3.49-3.74,4.98-3.31,3.42-7.22,6.48-11.13,9.16-2.18,1.5-4.42,3.03-6.81,4.16s-4.95,2.04-7.24,3.44c-.59.36-.05,1.29.54.93h0Z" fill="#444" stroke-width="0"/><path d="M195.39,102.43c2.41,2.11,3.14,5.12,3.75,8.14s1.39,5.98,2.93,8.66c.34.59,1.26,2.36,2.23,1.82.71-.4.22-1.39-.04-1.9-1.63-3.17-2.08-6.68-2.45-10.18-.39-3.71-.75-7.44-2.29-10.88-.28-.63-1.21-.08-.93.54,1.63,3.65,1.83,7.68,2.28,11.59.21,1.82.45,3.64.91,5.42.23.9.53,1.79.89,2.65.2.47.48,1.51.87,1.84.34.29-.3-1.02-.37-1.14-.25-.41-.47-.84-.68-1.27-.44-.91-.82-1.86-1.17-2.81-.56-1.55-.86-3.17-1.19-4.78-.64-3.15-1.49-6.27-4-8.46-.52-.45-1.28.3-.76.76h0Z" fill="#444" stroke-width="0"/><path d="M194.96,116.46c.53.73.89,1.56,1.32,2.35.4.73.97,1.69,1.8,1.98,1.02.35,2.13.34,3.19.31.57-.02,1.14-.04,1.71,0,.51.03.95.12,1.37-.25.52-.46-.24-1.22-.76-.76.1-.09.04-.02-.09-.03-.1,0-.19-.02-.29-.02-.23-.02-.46-.03-.69-.03-.49,0-.99.02-1.48.03-.46.01-.93.01-1.39-.02-.38-.03-.95-.06-1.29-.25-.59-.33-1-1.2-1.3-1.77-.37-.7-.7-1.42-1.17-2.07-.4-.55-1.33-.02-.93.54h0Z" fill="#444" stroke-width="0"/><path d="M87.38,104.86c-14.4,10.29-19.49,33.38-9.47,48.32,5.83,8.71,16.79,13.6,27,10.08,2.74-.94,5.26-2.4,7.5-4.23,2.02-1.65,3.96-3.66,5.58-5.7,2.91-3.66,4.72-8.14,5.77-12.67,2.26-9.77,1.69-22.79-6.35-29.93-.51-.46-1.28.3-.76.76,6.9,6.13,7.97,16.89,6.71,25.51-.66,4.52-2.01,9.02-4.35,12.96-1.1,1.85-2.44,3.38-3.92,4.92-2.04,2.12-4,4.07-6.58,5.56-5.11,2.97-11.24,3.76-16.89,1.97-4.46-1.41-8.46-4.29-11.41-7.91-5.39-6.61-7.06-15.57-6.09-23.89,1.12-9.6,5.84-19.13,13.8-24.83.56-.4.02-1.33-.54-.93h0Z" fill="#444" stroke-width="0"/><path d="M95.7,106.48c-1.86.97-3.74,1.92-5.46,3.12-1.55,1.07-2.79,2.38-3.95,3.85-2.29,2.89-4.04,6.16-5.33,9.61-.67,1.8-1.21,3.64-1.63,5.51-.39,1.71-.45,3.38-.42,5.13.06,3.37.5,6.75,1.42,10,1.78,6.28,5.71,12.39,11.76,15.29s13.23,1.94,18.92-1.17c7.08-3.88,10.97-10.94,12.54-18.64.14-.67-.9-.96-1.03-.29-1.35,6.58-4.31,12.72-9.93,16.68-5.12,3.61-12.05,5.2-18.1,3.23-6.17-2-10.53-7.73-12.58-13.66-1.06-3.04-1.63-6.25-1.84-9.46-.1-1.49-.11-2.98-.06-4.47.07-1.8.63-3.62,1.14-5.34,1.14-3.79,2.82-7.42,5.13-10.63,1.23-1.71,2.6-3.36,4.33-4.59s3.72-2.24,5.64-3.24c.61-.32.07-1.25-.54-.93h0Z" fill="#444" stroke-width="0"/><path d="M162.78,135.87c-.75-3.3-.78-6.67-.27-10.01.1-.68-.93-.97-1.03-.29-.54,3.54-.53,7.08.27,10.58.15.67,1.19.39,1.03-.29h0Z" fill="#444" stroke-width="0"/><path d="M195.56,135.56c-1.42,3.72-2.88,7.56-5.39,10.71s-6.26,5.19-10.24,5.61c-7.84.82-13.68-5.46-15.96-12.38-.22-.65-1.25-.37-1.03.29,1.89,5.72,5.93,11.12,11.98,12.76,6.23,1.68,12.93-1.25,16.64-6.34,2.27-3.12,3.67-6.77,5.04-10.35.25-.65-.79-.92-1.03-.29h0Z" fill="#444" stroke-width="0"/><path d="M188.16,107.77c5.08,1.74,7.25,7.43,8.17,12.27.13.68,1.16.39,1.03-.29-1-5.25-3.46-11.15-8.92-13.02-.65-.22-.94.81-.29,1.03h0Z" fill="#999" stroke-width="0"/><path d="M172.09,138.84c1.26,3.48,3.64,6.98,7.57,7.54,3.34.48,6.55-1.32,8.73-3.74,1.52-1.69,2.61-3.71,3.32-5.87.22-.66-.82-.94-1.03-.29-1.29,3.88-4.2,7.8-8.39,8.74-4.59,1.02-7.74-2.76-9.16-6.67-.23-.64-1.27-.37-1.03.29h0Z" fill="#444" stroke-width="0"/><path d="M175.1,113.82c-1.02,1.1-1.69,2.43-2.17,3.85-.26.77-.41,1.57-.69,2.32-.34.91-.68,1.8-.94,2.73-.94,3.43-1.01,6.99-.51,10.49.1.68,1.13.39,1.03-.29-.47-3.31-.37-6.69.51-9.92.4-1.47.98-2.87,1.41-4.33s1.05-2.95,2.12-4.09c.47-.5-.29-1.26-.76-.76h0Z" fill="#444" stroke-width="0"/><path d="M193.66,125.2c.06-2.7-.59-5.46-1.6-7.95s-2.54-5.09-4.96-6.45c-1.31-.74-2.76-.96-4.24-.73-.68.1-.39,1.14.29,1.03,3.33-.51,5.74,2.2,7.15,4.87s2.36,6.08,2.29,9.22c-.02.69,1.06.69,1.07,0h0Z" fill="#444" stroke-width="0"/><path d="M113.9,80.44c-3.32.24-9.41.66-11.19-3.03-.97-2.02-.15-4.5.69-6.41,1.34-3.04,3.61-5.44,5.91-7.77s4.59-4.59,7.06-6.71c1.2-1.03,2.51-2.16,4.02-2.7,1.29-.46,2.67-.61,4.03-.51,2.67.2,5.31,1.41,7.09,3.43.36.41,1.24,1.33,1.14,1.96s-1.01.95-1.33,1.44c-.52.8-.14,1.37.64,1.74,1.72.82,3.57,1.22,3.95,3.44.25,1.43-.35,2.77-1.27,3.85-1.71,2.01-4.16,3.25-6.32,4.69-.57.38-.04,1.31.54.93,2.21-1.47,4.67-2.74,6.44-4.75,1.63-1.84,2.44-4.53.92-6.71-.37-.53-.85-.99-1.39-1.35-.63-.43-1.54-.51-2.12-.94-.71-.53.51-1.06.81-1.64.23-.45.29-.96.12-1.44-.9-2.51-3.95-4.38-6.34-5.16-2.59-.85-5.76-.88-8.23.42-1.56.82-2.96,2.09-4.27,3.26-1.48,1.33-2.99,2.66-4.38,4.1-2.56,2.66-5.47,5.2-7.27,8.47-1.19,2.16-2.28,4.88-1.86,7.4.9,5.49,8.44,5.37,12.6,5.07.68-.05.69-1.12,0-1.07h0Z" fill="#444" stroke-width="0"/><path d="M128.31,73.84c-4.37,2.99-8.97,6.14-14.41,6.6-.68.06-.69,1.13,0,1.07,5.65-.48,10.39-3.63,14.95-6.75.57-.39.03-1.32-.54-.93h0Z" fill="#444" stroke-width="0"/><path d="M129.17,61.14c-3.42,1.92-6.91,3.7-10.14,5.93-2.97,2.06-6.76,4.88-7.51,8.67-.39,1.98.33,3.79,1.62,5.29.45.52,1.21-.24.76-.76-1.07-1.24-1.68-2.76-1.31-4.4s1.46-3.07,2.62-4.27c2.79-2.89,6.35-5.02,9.83-6.97,1.55-.87,3.13-1.69,4.68-2.56.6-.34.06-1.26-.54-.93h0Z" fill="#444" stroke-width="0"/><path d="M124.2,82.94c-2.74.26-5.49.52-8.25.54-1.94.01-3.83-.23-5.75-.39-1.25-.1-2.53-.13-3.76-.4-1.05-.23-2.02-.59-1.15-1.7.42-.54-.34-1.3-.76-.76-.75.96-1.09,2.17.11,2.94s2.77.79,4.09.89c1.78.14,3.56.4,5.35.47,3.39.13,6.77-.19,10.13-.51.68-.07.69-1.14,0-1.07h0Z" fill="#444" stroke-width="0"/><path d="M118.08,106.65c-.72,1.86-1.36,3.83-2.31,5.58-.18.32-.54.35-.88.42-.36.08-.71.18-1.07.28-.39.11-.75.23-1.12.38-.29.12-.66.33-.98.23l.37.66c.82-3.58,3.06-6.63,4.26-10.08.23-.65-.81-.93-1.03-.29-1.2,3.45-3.44,6.49-4.26,10.08-.07.29.09.57.37.66.88.26,1.64-.37,2.46-.57.43-.1.85-.23,1.28-.32.4-.09.83-.19,1.17-.44.39-.29.55-.91.75-1.34.24-.54.47-1.08.7-1.62.46-1.11.89-2.23,1.33-3.35.25-.64-.79-.92-1.03-.29h0Z" fill="#444" stroke-width="0"/><path d="M115.11,103.95c.14.15.25.31.42.43.23.16.49.19.77.14.03,0,.12-.02.05-.01.03,0,.16.02.07,0,0,0,.16.05.07.01.05.02.1.05.14.08.17.1.32.22.43.32.16.13.31.28.45.43.08.09.19.29.29.45.11.18.25.34.33.54-.03-.06.02.08.03.09-.02-.11.05.28.02.17.02.08.05.14.08.22l-.02-.04c.02.07.02.07,0,0-.02.28.26.55.54.54.3-.01.52-.24.54-.54,0-.08,0-.16-.02-.24-.01-.04-.06-.21-.09-.23.03.01.03.13.02.02-.01-.09-.02-.17-.05-.26-.08-.25-.22-.47-.36-.68-.12-.19-.23-.39-.36-.57-.15-.21-.32-.4-.51-.57-.36-.31-.78-.68-1.25-.79-.13-.03-.27-.04-.41-.03-.07,0-.16,0-.22.03-.04,0-.04,0,0,0,.05.01.06.01.02,0-.04-.01-.03,0,.03.01-.04-.03-.05-.03-.02,0,.05.05-.05-.06-.06-.07-.06-.07-.12-.15-.18-.22-.19-.21-.57-.2-.76,0-.21.23-.2.53,0,.76h0Z" fill="#444" stroke-width="0"/><path d="M126.07,88.8c2.2,8.49,4.45,16.97,6.67,25.45,1.11,4.23,2.21,8.47,3.28,12.72.69,2.73,1.27,5.61,2.44,8.19,2.03,4.48,6.9,3.76,11.06,3.75,3.91,0,8.1.01,11.82-1.34s7.57-2.94,11.39-4.31c4.09-1.48,8.2-2.89,12.31-4.3,2.01-.69,4.03-1.39,6.04-2.09,1.53-.53,3.01-1.26,4.62-1.55,1.52-.27,3.11-.12,4.3.94s1.94,2.9,1.92,4.53c-.04,3.96-4.27,4.12-7.23,4.62-4.25.73-8.55,1.54-12.84,1.88s-8.71.74-13.08,1-8.41,1.07-12.62,1.43-8.27.65-12.37.4c-1.57-.09-3.24-.52-4.48-1.53-1.47-1.19-2.01-3.27-2.55-5.01-1.19-3.8-1.96-7.74-2.99-11.58-2.2-8.22-4.2-16.5-6.32-24.74-.52-2.01-1.04-4.02-1.57-6.03-.18-.67-1.21-.38-1.03.29,2.29,8.61,4.38,17.27,6.61,25.9,1.07,4.14,2.21,8.25,3.19,12.42.47,1.99.99,3.98,1.72,5.9.54,1.43,1.1,2.74,2.32,3.71,2.6,2.07,6.19,1.83,9.32,1.77,4.41-.07,8.81-.44,13.19-.94,2.11-.24,4.2-.53,6.31-.79,2.3-.29,4.64-.33,6.95-.51,4.46-.35,8.89-.7,13.3-1.38,2.1-.32,4.21-.65,6.31-1,1.86-.31,3.97-.42,5.74-1.12,2.28-.91,3.45-3.1,3.16-5.5-.33-2.73-2.12-5.36-4.97-5.79-3.14-.47-6.41,1.37-9.28,2.36-8.36,2.89-16.84,5.58-25.03,8.94-2.03.83-4.01,1.64-6.21,1.92s-4.35.38-6.53.41c-1.88.03-3.77.09-5.64.05-1.1-.02-2.24-.1-3.28-.49-1.9-.72-2.65-2.61-3.24-4.41-1.21-3.71-2.04-7.54-3.01-11.32-2.27-8.81-4.61-17.61-6.92-26.41-.59-2.24-1.17-4.48-1.75-6.72-.17-.67-1.21-.38-1.03.29h0Z" fill="#444" stroke-width="0"/><path d="M166.35,99.91c-4.21-.09-8.42.39-12.63.23-.69-.03-.69,1.05,0,1.07,4.21.16,8.42-.31,12.63-.23.69.01.69-1.06,0-1.07h0Z" fill="#444" stroke-width="0"/><path d="M148.66,59.68c.05-.67.04-1.34.16-2,.06-.33.13-.84.36-1.1.31-.36.84-.31,1.28-.33.83-.03,1.67-.04,2.49-.02.41.01.82.03,1.22.09.66.09.81.35,1.28.71.42.32.94.44,1.46.49.86.08,1.72.13,2.58.19,1.74.11,3.48.12,5.21.18.67.02,1.89-.16,2.41.32.33.3.41.89.15,1.25-.39.54-1.32.42-1.9.4-.91-.02-1.81-.04-2.72-.09-1.7-.09-3.39-.25-5.08-.33-1.13-.05-2.79-.4-3.48.76-.18.3-.2.66-.49.87-.33.24-.77.18-1.16.17-.53-.01-1.06-.02-1.58-.04-1.1-.05-2.17-.22-2.18-1.52,0-.69-1.08-.69-1.07,0,.02,2.76,3.01,2.65,5.08,2.66.65,0,1.42-.06,1.86-.61.18-.22.22-.5.37-.73.47-.72,1.19-.54,1.97-.51,2.23.08,4.44.31,6.67.4,1.35.06,3.65.51,4.59-.77.62-.85.44-2.11-.37-2.78-.52-.43-1.12-.44-1.77-.48-1.26-.06-2.53-.08-3.79-.12-1.13-.03-2.26-.07-3.39-.16-.48-.04-.95-.09-1.43-.11-.77-.04-1.12-.23-1.68-.71-.72-.61-1.83-.57-2.73-.6-1.12-.03-2.44-.15-3.54.1-1.89.44-1.71,2.9-1.82,4.41-.05.69,1.02.69,1.07,0Z" fill="#444" stroke-width="0"/><path d="M154.79,60.11c-.06-.09-.03-.21-.07-.31-.03-.07-.03-.14-.03-.22,0-.2.01-.41.02-.61,0-.22.03-.44.07-.66.02-.13.08-.25.11-.37.02-.09.05-.17.07-.26.01-.08.05-.12.08-.19.02-.04.04-.09.06-.14.02-.04.05-.09.06-.14" fill="#444" stroke-width="0"/><path d="M155.25,59.84s.03.08.03.12c0-.03,0-.05,0-.08,0-.07-.01-.17-.04-.24-.01-.04-.01-.03,0,.04,0-.03,0-.06,0-.09,0-.07,0-.15,0-.22,0-.26,0-.52.04-.77-.01.09.01-.08.02-.1.01-.06.02-.11.04-.17.03-.11.07-.22.1-.33.01-.05.02-.16.05-.2-.03.07-.03.07,0,.02l.02-.04c.03-.06.05-.12.07-.17.03-.06.03-.06,0,0,.03-.08.07-.15.09-.23.07-.27-.09-.6-.37-.66s-.58.08-.66.37c-.02.05-.01.05.01-.02-.02.05-.05.11-.07.16-.02.06-.03.06,0,.01-.01.03-.03.05-.04.07-.08.15-.11.29-.15.45-.08.3-.15.58-.19.89-.03.29-.03.59-.04.88,0,.06,0,.12,0,.19,0-.03.05.26.05.27,0-.08-.01-.08,0-.02,0,.06.01.12.02.18.02.08.05.16.09.24.14.25.49.35.73.19s.34-.47.19-.73h0Z" fill="#999" stroke-width="0"/><path d="M150.42,56.41c2.49-.26,5.22-.22,7.64-.78.38-.26.63-1.08,1.27-1.06.54-.07,1.29.09,1.42.53-.02.67-.98.8-1.53,1.06-3.03.67-6.5.86-9.48,1.05" fill="#444" stroke-width="0"/><path d="M150.42,56.94c2.02-.2,4.06-.22,6.08-.5.71-.1,1.66-.08,2.16-.65.18-.21.34-.57.61-.69.21-.09.76-.05.92.1.04-.1.03-.11-.05-.01-.07.05-.14.09-.22.12-.12.06-.24.1-.37.14-.41.15-.79.25-1.22.33-.92.18-1.85.31-2.78.42-1.93.22-3.87.34-5.81.46-.69.04-.69,1.12,0,1.07,1.81-.12,3.61-.22,5.41-.42,1.62-.17,3.33-.32,4.86-.9.55-.21,1.13-.5,1.24-1.14.12-.68-.55-1.1-1.13-1.22s-1.29-.08-1.75.37c-.19.18-.31.41-.48.6-.21.23-.7.23-1.05.28-2.12.35-4.29.34-6.43.55-.68.07-.69,1.14,0,1.07h0Z" fill="#999" stroke-width="0"/><path d="M148.15,56.33c-2.58-.22-5.6-.1-7.89,1.24-1.07.62-1.99,1.47-2.98,2.22s-1.9,1.46-2.62,2.45c-.41.56.52,1.09.93.54.68-.94,1.66-1.62,2.57-2.31s1.69-1.41,2.64-1.96c2.13-1.24,4.96-1.29,7.35-1.09.69.06.68-1.01,0-1.07h0Z" fill="#444" stroke-width="0"/><path d="M147.93,58.57c-2.27-.26-4.55-.09-6.61.98s-3.59,2.67-5.22,4.16c-.51.47.25,1.22.76.76,1.53-1.4,3.04-2.94,4.89-3.93s4.06-1.14,6.18-.9c.68.08.68-1,0-1.07h0Z" fill="#444" stroke-width="0"/><path d="M146.73,56.54c.02-2.18.61-4.17,2.18-5.74,1.29-1.29,2.9-2.2,4.37-3.27,1.7-1.24,2.93-2.73,4.26-4.33.77-.93,1.56-2.06,2.65-2.63.76-.39,1.69-.55,2.53-.61,1.66-.13,3.57.07,4.99,1.01,1.63,1.08,1.92,3.26.21,4.44-1.5,1.03-3.64.94-5.37.91s-3.67-.19-5.47.11c-2.38.4-4.96,1.83-6.91,3.2-.99.7-1.93,1.49-2.46,2.61-.62,1.31-.7,2.79-.89,4.2-.08.56.77.8.85.23.2-1.43.25-3.01.96-4.3.8-1.46,2.51-2.4,3.92-3.16,2.23-1.19,4.28-2.05,6.81-2.07,3.15-.03,8.66,1.04,10.37-2.55.68-1.43,0-3.13-1.16-4.08-1.32-1.07-3.14-1.43-4.81-1.47-1.78-.04-3.67.27-5.03,1.49-1.92,1.73-3.16,4.05-5.19,5.68-1.71,1.37-3.72,2.39-5.27,3.96-1.73,1.74-2.41,3.96-2.44,6.37,0,.57.88.57.88,0h0Z" fill="#444" stroke-width="0"/><path d="M189.75,86.15c-2.33.48-4.41,1.18-6.37,2.55-2.16,1.51-4.5,2.25-7.08,2.67-5.09.83-10.3.3-15.37-.35-.68-.09-.68.99,0,1.07,5.04.64,10.17,1.13,15.22.38,2.31-.35,4.74-.88,6.74-2.14,1.07-.68,2.04-1.48,3.21-2,1.25-.56,2.6-.87,3.94-1.15.68-.14.39-1.17-.29-1.03h0Z" fill="#999" stroke-width="0"/><path d="M121.91,52.79c-.43-.61-.93-1.16-1.39-1.75-.21-.27-.47-.57-.6-.88,0,.02.03.2,0-.03,0-.06,0-.13,0-.2,0-.16,0-.32,0-.49,0-1.19-.03-2.47-.74-3.48-.45-.65-1.11-1.09-1.93-.96-.71.11-1.31.6-1.79,1.1-1.14,1.22-2.03,2.88-2.43,4.5-.37,1.48.14,3.66,2.03,3.6.98-.03,1.88-.58,2.62-1.18s1.45-1.41,1.82-2.34c.11-.27-.12-.59-.37-.66-.31-.09-.55.11-.66.37-.46,1.14-1.8,2.34-3.04,2.67-.52.14-.95.08-1.22-.4-.17-.3-.25-.69-.26-1.04,0-.27.02-.35.09-.64.32-1.36,1.02-2.74,1.91-3.82.21-.26.45-.51.71-.72.08-.06.18-.14.29-.2.13-.07.23-.12.3-.14.26-.08.29-.09.52,0-.08-.03.2.12.18.11.11.09.2.2.28.31.69.95.59,2.21.6,3.32,0,.31,0,.59.15.87.17.31.38.6.6.88.45.59.96,1.13,1.39,1.74.39.56,1.32.02.93-.54h0Z" fill="#444" stroke-width="0"/><path d="M120.67,53.48c-.11-.26-.23-.51-.37-.76-.04-.07-.08-.13-.13-.19-.03-.04-.06-.08-.09-.12-.05-.07,0,.02.01.02-.02,0-.1-.15-.12-.17-.04-.05-.07-.1-.11-.15-.17-.23-.35-.45-.54-.66-.09-.09-.17-.18-.27-.27-.09-.08-.19-.15-.27-.24-.18-.21-.57-.2-.76,0-.21.23-.2.53,0,.76.07.08.16.14.24.21.09.08.17.16.26.25s.16.17.24.26c.04.05.08.1.12.15.04.05.02.02,0,0,.02.03.04.06.06.08.07.09.14.19.2.28.05.07.1.14.16.2.01.02.04.04.05.06-.04-.05-.05-.06-.03-.03,0,.01.01.02.02.03.06.1.11.21.17.31.03.05.05.1.08.15.02.03.03.06.04.09.01.02.05.12,0,0,.05.13.12.24.25.32.11.07.28.1.41.05.25-.08.49-.38.37-.66h0Z" fill="#444" stroke-width="0"/><path d="M146.29,56.54c-.02-7.66,6.59-7.48,10.18-12.77,1.03-1.16,1.93-2.5,3.19-3.42,2.85-1.71,10.49-1.1,9.87,3.58-1.55,4.78-9.99,1.65-13.73,3.31-2.56,1.03-5.63,2.51-7.17,4.32-1.07,1.4-1.13,3.29-1.38,4.99" fill="#444" stroke-width="0"/><path d="M121.38,52.96l.06.06s-.05-.04-.06-.06Z" fill="#444" stroke-width="0"/><path d="M113.39,51.14c.28-1.98,3.44-7.95,5.55-4.65.44,1.03.59,2.27.45,3.39,0,.24.02.48.17.69.42.66,1.46,1.7,1.7,2.2,0,.02-.65-.67-.51-.43.13.18.25.63-.03.75-.37.17-.92-.34-1.27-.65-.38-.3-.81-.79-1.11-.69-.56.34-1.1,1.02-1.77,1.4-1.71,1.18-3.48.21-3.21-1.86l.02-.15Z" fill="#444" stroke-width="0"/><path d="M104.32,91.53c1.08-4.88,1.24-4.05,5.81-3.49,5.5.68,11.21,1.3,16.59,1.77,2.62.11,2.01,2.25,1.59,4.06-.37,2.32-.84,3.76-3.55,3.04-6.25-1.14-12.66-1.74-18.96-2.59-1.46-.16-1.96-1.3-1.52-2.62l.04-.18Z" fill="#bbb" stroke-width="0"/><path d="M124.68,79.44c.99-2.97,5.95-2.67,7.11-.06,1,3.76-7.25,3.61-7.13.17v-.11Z" fill="#fff" stroke-width="0"/><path d="M125.88,77.57c.54-.17,1.12-.63,1.74-.51,1.18.26,2.96.45,3.67,1.67.54.84.56,2.04-.22,2.72-.22.24-.5.54-.79.47-.18-.04-.25-.24-.17-.42,1.19-1.41.03-3.02-1.61-3.35-.54-.09-1.19-.09-1.73-.08-.4.04-1.26.2-.97-.42l.09-.09Z" fill="#444" stroke-width="0"/><path d="M125.19,79.59c.44-1.27,1.8-1.77,3.05-1.73.66.02,1.33.2,1.91.53.47.27,1.04.75,1.16,1.28.03.15.03.45.01.55-.01.05-.03.11-.04.16,0,.03-.02.06-.03.09,0,0,.03-.08,0-.02-.05.11-.11.21-.17.3.05-.07-.11.12-.15.16-.13.12-.08.08-.21.17-.23.15-.4.23-.6.3-1,.35-2.12.33-3.14.03-.51-.15-1.01-.4-1.36-.77-.32-.33-.47-.68-.41-1.2.03-.29-.27-.54-.54-.54-.32,0-.5.25-.54.54-.15,1.36.94,2.37,2.09,2.84,1.23.5,2.72.58,3.99.2s2.29-1.3,2.18-2.67c-.14-1.73-2.02-2.76-3.57-2.97-1.93-.27-4,.51-4.67,2.46-.23.65.81.93,1.03.29Z" fill="#444" stroke-width="0"/><path d="M230.41,135.4c3.47-11.1,10.64-21.16,19.42-28.84.72-.64,2.21-1.87,2.3-.07-.26,8.67-4.63,17.1-9.56,23.59,9.11-7.58,19.74-13.29,30.68-18.15.55-.24,1.54-.66,1.91-.26-2.76,13.32-16.16,24.37-28.92,28.68-.53.18-.91.32-.98.38,0,.11,1.14-.11,1.47-.16,10.32-1.68,21.23-1.62,31.26,1.4,1.31.36,2.13,1.1.47,1.9-10.58,4.96-22.48,7.39-34.17,7.18-2.48-.05-4.99-.19-7.39-.51-1.23-.17-2.12-.75-2.45-1.92-.88-2.62-2.63-7.79-3.73-11.12-.21-.67-.38-1.27-.33-1.93l.02-.16Z" fill="#ddd" stroke-width="0"/><path d="M245.61,151.15c-2.84-.04-5.84-.15-8.68-.53-1.13-.17-2.06-.73-2.45-1.85-1.26-3.61-2.83-8.31-3.91-11.62-.36-1.15-.19-2.23.25-3.38,3.84-10.42,10.56-20.09,19.15-27.46,1.34-1.19,2.5-1.42,2.3.8-.66,7.58-3.6,14.98-8.21,21.06-.74.96-1.26,1.68.24.43,8.85-7.21,19.79-12.7,29.2-16.91,1.09-.49,2.48-.85,1.84.94-4.1,12.74-15.99,23.28-28.57,27.72,10.79-1.56,22.19-1.4,31.35,1.54.54.17,1.48.5,1.48,1.01-.01.51-.98,1-1.52,1.25-10.02,4.57-21.2,7.02-32.27,6.99h-.19ZM259.83,139.55c-4.57,0-9.36.48-13.97,1.25-.33.05-1.46.21-.96-.08.5-.23.79-.32,1.29-.49,12.82-4.09,24.96-14.99,29.01-27.75.26-.96-.28-1.06-.87-.84-10.45,4.37-22.39,10.96-32.03,18.71-.24-.15.58-1,.8-1.33,5.04-6.24,8.25-13.97,8.93-21.88.03-.53.08-1.48-.48-1.5-.55.07-.72.33-1.14.62-8.99,7.69-16.42,17.94-19.87,29.12-.14.95.17,1.79.47,2.69.88,2.63,1.95,5.81,2.98,8.86.35.93.54,2.04,1.22,2.74.47.5,1.36.72,2.11.82,2.88.33,5.86.47,8.69.45,11.37-.21,23.32-2.32,33.24-7.76.34-.52-.52-.85-.99-1.01-5.56-1.75-11.99-2.6-18.21-2.6h-.2Z" fill="#ddd" stroke-width="0"/><path d="M230.95,135.32c2.17-7.01,5.91-13.67,10.42-19.44,1.49-1.93,3.45.14,4.18,1.69,1.5,2.88,1.3,6.37,1.32,9.54-.03,1.52.07,3.19-.64,4.57-.43.92-1.39,1.4-2.19,1.9-.29.2-.64.53-.6.88,0,.46.56.9.95,1.2,3.74,2.78,3.73,8.87,2.88,13.13-.21,1.37-1.35,2.21-2.71,2.11-2.66-.06-5.39-.15-7.99-.64-.64-.18-1.06-.44-1.31-1.01-.62-1.69-1.86-5.57-2.96-8.85-.46-1.72-1.35-3.23-1.35-4.91l.02-.15Z" fill="#999" stroke-width="0"/><path d="M269.38,117.41c.15-1.11-1.05-.77-1.55-.12-3.61,3.76-7.67,7.11-12.04,9.96-1.5,1.03-3.11,2.02-4.38,3.32-.28.33-.4.7-.28.95.24.48,1,.14,1.36-.16,5.7-4.39,12.06-8.09,16.76-13.66l.13-.29Z" fill="#fff" stroke-width="0"/><path d="M249.74,111.19c.17-.65-.72-1.19-1.17-.55-1.03,1.66-1.9,3.6-3.1,5.17-.22.33-.36.82-.03,1.12,1.09,1.15,3.57-4.73,4.21-5.53l.09-.21Z" fill="#fff" stroke-width="0"/><path d="M272.6,142.83c.66-.64-.38-1.24-1.1-1.06-7.04,1.18-14.23,1.95-21.23,3.39-1.05.07-2.2,1.23-.52,1.45,7.46-1.41,15.17-2.26,22.59-3.63l.26-.15Z" fill="#fff" stroke-width="0"/><path d="M234.66,148.89c.15-3.32-.53-3.35-3.64-3.39-5.29-.03-10.67-1.16-15.92-.99-2.14.09-6.81.59-8.99.9-1.48.52-1.08,2.46-1.17,3.71.03,1.06-.04,2.24.7,3.08.77.84,2.14.91,3.24,1.03,3.68.25,7.41.48,11.12.6,4.06-.06,8.28.06,12.23-1.06,2.04-.53,2.51-1.89,2.43-3.72v-.14Z" fill="#fb0" stroke-width="0"/><path d="M234.94,148.81c.82-4.45-2.17-3.53-5.29-3.78-6.73-.34-13.52-1.55-20.26-.4-1.91.17-4.62-.06-4.79,2.45-.38,3.82-.17,6.53,4.32,6.56,4.3.04,26.62,2.8,26.09-3.53-.03-.67-.29-1.02-.49-.77-.3.3-.32,1.43-.8,2.02-1.49,1.55-4.01,1.51-6.03,1.8-6.42.52-12.99.19-19.37-.38-.83-.09-1.83-.27-2.38-.89-.93-1.14-.66-3.29-.52-4.8.12-.6.43-1.07.95-1.28,1.38-.39,3.2-.26,4.7-.56,7.05-.99,14.23.62,21.3.71,1.03.03,1.76.51,1.81,1.65.05.6.28,1.83.71,1.29l.04-.09Z" fill="#fff" stroke-width="0"/><path d="M234.09,144.78c-7.86-2.38-16.06-1.87-24.23-1.29-1.23.14-2.72.38-3.71.88-1.47.68-1.42,2.14.16,2.58,1.65.5,3.56.44,5.3.58,6.58.38,13.36.87,19.86-.38,1.04-.28,3.99-1.06,2.73-2.31l-.11-.07Z" fill="#fb0" stroke-width="0"/><path d="M234.27,144.47c-3.66-1.53-8.37-1.61-12.42-1.85-5.33.21-10.89-.41-15.92,1.35-1.67.81-1.73,2.69.11,3.34.92.36,1.99.42,2.98.47,6.95.32,14.11.95,21.03.03,1.59-.32,4.47-.58,4.86-2.42-.03-.47-.33-.64-.55-.41-.89,1.44-3.09,1.86-4.73,2.08-6.78.8-13.59.27-20.31-.07-1.38.05-5.51-.66-2.81-2.37,5.41-1.58,11.68-1.11,17.31-1.15,3.41.16,6.75.81,10.09,1.39.42,0,.6-.13.43-.34l-.07-.07Z" fill="#fff" stroke-width="0"/><path d="M225.55,145.21c-2.6-.83-5.48-.73-8.2-.62-.95.07-2.13.06-2.97.45-1.8,1.45,2.73,1.23,3.45,1.34,1.26.02,8.02.52,7.79-1.13l-.07-.04Z" fill="#fff" stroke-width="0"/><path d="M231.67,148.45c-.11.24-.03.64-.03.92.05.51-.22,2.25.75,1.81.2-.15.16-.44.12-.62-.04-.44-.01-.93-.03-1.37-.02-.3-.03-.24-.04-.36.17-.54-.35-.8-.75-.43l-.03.05Z" fill="#fff" stroke-width="0"/><path d="M238.32,142.65c.15-3.32-.53-3.35-3.64-3.39-5.29-.03-10.67-1.16-15.92-.99-2.14.09-6.81.59-8.99.9-1.48.52-1.08,2.46-1.17,3.71.03,1.06-.04,2.24.7,3.08.77.84,2.14.91,3.24,1.03,3.68.25,7.41.48,11.12.6,4.06-.06,8.28.06,12.23-1.06,2.04-.53,2.51-1.89,2.43-3.72v-.14Z" fill="#fb0" stroke-width="0"/><path d="M238.61,142.57c.82-4.45-2.17-3.53-5.29-3.78-6.73-.34-13.52-1.55-20.26-.4-1.91.17-4.62-.06-4.79,2.45-.38,3.82-.17,6.53,4.32,6.56,4.3.04,26.62,2.8,26.09-3.53-.03-.67-.29-1.02-.49-.77-.3.3-.32,1.43-.8,2.02-1.49,1.55-4.01,1.51-6.03,1.8-6.42.52-12.99.19-19.37-.38-.83-.09-1.83-.27-2.38-.89-.93-1.14-.66-3.29-.52-4.8.12-.6.43-1.07.95-1.28,1.38-.39,3.2-.26,4.7-.56,7.05-.99,14.23.62,21.3.71,1.03.03,1.76.51,1.81,1.65.05.6.28,1.83.71,1.29l.04-.09Z" fill="#fff" stroke-width="0"/><path d="M237.75,138.54c-7.86-2.38-16.06-1.87-24.23-1.29-1.23.14-2.72.38-3.71.88-1.47.68-1.42,2.14.16,2.58,1.65.5,3.56.44,5.3.58,6.58.38,13.36.87,19.86-.38,1.04-.28,3.99-1.06,2.73-2.31l-.11-.07Z" fill="#fb0" stroke-width="0"/><path d="M237.95,138.24c-3.66-1.53-8.37-1.61-12.42-1.85-5.33.21-10.89-.41-15.92,1.35-1.67.81-1.73,2.69.11,3.34.92.36,1.99.42,2.98.47,6.95.32,14.11.95,21.03.03,1.59-.32,4.47-.58,4.86-2.42-.03-.47-.33-.64-.55-.41-.89,1.44-3.09,1.86-4.73,2.08-6.78.8-13.59.27-20.31-.07-1.38.05-5.51-.66-2.81-2.37,5.41-1.58,11.68-1.11,17.31-1.15,3.41.16,6.75.81,10.09,1.39.42,0,.6-.13.43-.34l-.07-.07Z" fill="#fff" stroke-width="0"/><path d="M229.22,138.98c-2.6-.83-5.48-.73-8.2-.62-.95.07-2.13.06-2.97.45-1.8,1.45,2.73,1.23,3.45,1.34,1.26.02,8.02.52,7.79-1.13l-.07-.04Z" fill="#fff" stroke-width="0"/><path d="M211.83,142.66c-.05.13-.1.48-.03.61.03.11.02-.02-.03.21-.07.34.06.41.06.7.03.34-.14.83.09,1.17.25.35.79.05.72-.32-.04-.37.09-.81-.04-1.26-.04-.17-.08-.11-.04-.16.02-.05.08-.28.05-.42-.04-.27-.05-.08,0-.37.11-.58-.67-.68-.77-.21v.05Z" fill="#fff" stroke-width="0"/><path d="M217.07,142.93c-.36.49-.06,1.32-.05,1.93.04.36-.04.77.3,1,.28.14.62-.19.56-.45-.02-.14-.19-.39-.41-.36-.27-.03-.47.37-.39.43.05,0,.74.07.78-.04.05-.54-.13-1.37-.13-1.91,0-.13-.05-.05-.01-.09.24-.42-.19-.84-.63-.55l-.03.04Z" fill="#fff" stroke-width="0"/><path d="M221.65,143.41c-.01.28.08,1.02.08,1.28.03.39-.02,1.28.6,1.15.54-.27.16-.73.22-1.33-.1-.47.07-1.12-.19-1.45-.28-.28-.65,0-.71.28v.06Z" fill="#fff" stroke-width="0"/><path d="M226.53,143.39c-.04.42.01,1.15.07,1.59-.02.49.07,1.24.7.83.34-.47-.02-1.44.05-1.92,0-.33.08-.79-.24-.91-.28-.14-.54.17-.57.36v.06Z" fill="#fff" stroke-width="0"/><path d="M230.92,143.35c-.01.16-.01.57.06.73.05.15.03-.05.03.14,0,.26-.01.7.07,1.01,0,.04-.03-.03.15-.14.15-.04.43-.08.37-.15-.65-.29-.82.89,0,.74.31-.11.33-.37.3-.6-.09-.35.01-.77-.07-1.13-.15-.36.06-.87-.32-1.01-.28-.14-.54.17-.56.36v.05Z" fill="#fff" stroke-width="0"/><path d="M235.33,142.21c-.11.24-.03.64-.03.92.05.51-.22,2.25.75,1.81.2-.15.16-.44.12-.62-.04-.44-.01-.93-.03-1.37-.02-.3-.03-.24-.04-.36.17-.54-.35-.8-.75-.43l-.03.05Z" fill="#fff" stroke-width="0"/><path d="M234.66,136.72c.15-3.32-.53-3.35-3.64-3.39-5.29-.03-10.67-1.16-15.92-.99-2.14.09-6.81.59-8.99.9-1.48.52-1.08,2.46-1.17,3.71.03,1.06-.04,2.24.7,3.08.77.84,2.14.91,3.24,1.03,3.68.25,7.41.48,11.12.6,4.06-.06,8.28.06,12.23-1.06,2.04-.53,2.51-1.89,2.43-3.72v-.14Z" fill="#fb0" stroke-width="0"/><path d="M234.94,136.63c.82-4.45-2.17-3.53-5.29-3.78-6.73-.34-13.52-1.55-20.26-.4-1.91.17-4.62-.06-4.79,2.45-.38,3.82-.17,6.53,4.32,6.56,4.3.04,26.62,2.8,26.09-3.53-.03-.67-.29-1.02-.49-.77-.3.3-.32,1.43-.8,2.02-1.49,1.55-4.01,1.51-6.03,1.8-6.42.52-12.99.19-19.37-.38-.83-.09-1.83-.27-2.38-.89-.93-1.14-.66-3.29-.52-4.8.12-.6.43-1.07.95-1.28,1.38-.39,3.2-.26,4.7-.56,7.05-.99,14.23.62,21.3.71,1.03.03,1.76.51,1.81,1.65.05.6.28,1.83.71,1.29l.04-.09Z" fill="#fff" stroke-width="0"/><path d="M234.09,132.62c-7.86-2.38-16.06-1.87-24.23-1.29-1.23.14-2.72.38-3.71.88-1.47.68-1.42,2.14.16,2.58,1.65.5,3.56.44,5.3.58,6.58.38,13.36.87,19.86-.38,1.04-.28,3.99-1.06,2.73-2.31l-.11-.07Z" fill="#fb0" stroke-width="0"/><path d="M234.27,132.31c-3.66-1.53-8.37-1.61-12.42-1.85-5.33.21-10.89-.41-15.92,1.35-1.67.81-1.73,2.69.11,3.34.92.36,1.99.42,2.98.47,6.95.32,14.11.95,21.03.03,1.59-.32,4.47-.58,4.86-2.42-.03-.47-.33-.64-.55-.41-.89,1.44-3.09,1.86-4.73,2.08-6.78.8-13.59.27-20.31-.07-1.38.05-5.51-.66-2.81-2.37,5.41-1.58,11.68-1.11,17.31-1.15,3.41.16,6.75.81,10.09,1.39.42,0,.6-.13.43-.34l-.07-.07Z" fill="#fff" stroke-width="0"/><path d="M225.55,133.05c-2.6-.83-5.48-.73-8.2-.62-.95.07-2.13.06-2.97.45-1.8,1.45,2.73,1.23,3.45,1.34,1.26.02,8.02.52,7.79-1.13l-.07-.04Z" fill="#fff" stroke-width="0"/><path d="M208.16,136.73c-.05.13-.1.48-.03.61.03.11.02-.02-.03.21-.07.34.06.41.06.7.03.34-.14.83.09,1.17.25.35.79.05.72-.32-.04-.37.09-.81-.04-1.26-.04-.17-.08-.11-.04-.16.02-.05.08-.28.05-.42-.04-.27-.05-.08,0-.37.11-.58-.67-.68-.77-.21v.05Z" fill="#fff" stroke-width="0"/><path d="M213.4,136.99c-.36.49-.06,1.32-.05,1.93.04.36-.04.77.3,1,.28.14.62-.19.56-.45-.02-.14-.19-.39-.41-.36-.27-.03-.47.37-.39.43.05,0,.74.07.78-.04.05-.54-.13-1.37-.13-1.91,0-.13-.05-.05-.01-.09.24-.42-.19-.84-.63-.55l-.03.04Z" fill="#fff" stroke-width="0"/><path d="M217.98,137.48c-.01.28.08,1.02.08,1.28.03.39-.02,1.28.6,1.15.54-.27.16-.73.22-1.33-.1-.47.07-1.12-.19-1.45-.28-.28-.65,0-.71.28v.06Z" fill="#fff" stroke-width="0"/><path d="M222.87,137.45c-.04.42.01,1.15.07,1.59-.02.49.07,1.24.7.83.34-.47-.02-1.44.05-1.92,0-.33.08-.79-.24-.91-.28-.14-.54.17-.57.36v.06Z" fill="#fff" stroke-width="0"/><path d="M227.25,137.41c-.01.16-.01.57.06.73.05.15.03-.05.03.14,0,.26-.01.7.07,1.01,0,.04-.03-.03.15-.14.15-.04.43-.08.37-.15-.65-.29-.82.89,0,.74.31-.11.33-.37.3-.6-.09-.35.01-.77-.07-1.13-.15-.36.06-.87-.32-1.01-.28-.14-.54.17-.56.36v.05Z" fill="#fff" stroke-width="0"/><path d="M231.67,136.29c-.11.24-.03.64-.03.92.05.51-.22,2.25.75,1.81.2-.15.16-.44.12-.62-.04-.44-.01-.93-.03-1.37-.02-.3-.03-.24-.04-.36.17-.54-.35-.8-.75-.43l-.03.05Z" fill="#fff" stroke-width="0"/><path d="M244.21,131.59c.15-3.32-.53-3.35-3.64-3.39-5.29-.03-10.67-1.16-15.92-.99-2.14.09-6.81.59-8.99.9-1.48.52-1.08,2.46-1.17,3.71.03,1.06-.04,2.24.7,3.08.77.84,2.14.91,3.24,1.03,3.68.25,7.41.48,11.12.6,4.06-.06,8.28.06,12.23-1.06,2.04-.53,2.51-1.89,2.43-3.72v-.14Z" fill="#fb0" stroke-width="0"/><path d="M244.5,131.51c.82-4.45-2.17-3.53-5.29-3.78-6.73-.34-13.52-1.55-20.26-.4-1.91.17-4.62-.06-4.79,2.45-.38,3.82-.17,6.53,4.32,6.56,4.3.04,26.62,2.8,26.09-3.53-.03-.67-.29-1.02-.49-.77-.3.3-.32,1.43-.8,2.02-1.49,1.55-4.01,1.51-6.03,1.8-6.42.52-12.99.19-19.37-.38-.83-.09-1.83-.27-2.38-.89-.93-1.14-.66-3.29-.52-4.8.12-.6.43-1.07.95-1.28,1.38-.39,3.2-.26,4.7-.56,7.05-.99,14.23.62,21.3.71,1.03.03,1.76.51,1.81,1.65.05.6.28,1.83.71,1.29l.04-.09Z" fill="#fff" stroke-width="0"/><path d="M243.65,127.48c-7.86-2.38-16.06-1.87-24.23-1.29-1.23.14-2.72.38-3.71.88-1.47.68-1.42,2.14.16,2.58,1.65.5,3.56.44,5.3.58,6.58.38,13.36.87,19.86-.38,1.04-.28,3.99-1.06,2.73-2.31l-.11-.07Z" fill="#fb0" stroke-width="0"/><path d="M243.83,127.18c-3.66-1.53-8.37-1.61-12.42-1.85-5.33.21-10.89-.41-15.92,1.35-1.67.81-1.73,2.69.11,3.34.92.36,1.99.42,2.98.47,6.95.32,14.11.95,21.03.03,1.59-.32,4.47-.58,4.86-2.42-.03-.47-.33-.64-.55-.41-.89,1.44-3.09,1.86-4.73,2.08-6.78.8-13.59.27-20.31-.07-1.38.05-5.51-.66-2.81-2.37,5.41-1.58,11.68-1.11,17.31-1.15,3.41.16,6.75.81,10.09,1.39.42,0,.6-.13.43-.34l-.07-.07Z" fill="#fff" stroke-width="0"/><path d="M235.11,127.92c-2.6-.83-5.48-.73-8.2-.62-.95.07-2.13.06-2.97.45-1.8,1.45,2.73,1.23,3.45,1.34,1.26.02,8.02.52,7.79-1.13l-.07-.04Z" fill="#fff" stroke-width="0"/><path d="M232.42,132.33c-.04.42.01,1.15.07,1.59-.02.49.07,1.24.7.83.34-.47-.02-1.44.05-1.92,0-.33.08-.79-.24-.91-.28-.14-.54.17-.57.36v.06Z" fill="#fff" stroke-width="0"/><path d="M236.8,132.29c-.01.16-.01.57.06.73.05.15.03-.05.03.14,0,.26-.01.7.07,1.01,0,.04-.03-.03.15-.14.15-.04.43-.08.37-.15-.65-.29-.82.89,0,.74.31-.11.33-.37.3-.6-.09-.35.01-.77-.07-1.13-.15-.36.06-.87-.32-1.01-.28-.14-.54.17-.56.36v.05Z" fill="#fff" stroke-width="0"/><path d="M241.22,131.16c-.11.24-.03.64-.03.92.05.51-.22,2.25.75,1.81.2-.15.16-.44.12-.62-.04-.44-.01-.93-.03-1.37-.02-.3-.03-.24-.04-.36.17-.54-.35-.8-.75-.43l-.03.05Z" fill="#fff" stroke-width="0"/><path d="M238.37,125.79c.15-3.32-.53-3.35-3.64-3.39-5.29-.03-10.67-1.16-15.92-.99-2.14.09-6.81.59-8.99.9-1.48.52-1.08,2.46-1.17,3.71.03,1.06-.04,2.24.7,3.08.77.84,2.14.91,3.24,1.03,3.68.25,7.41.48,11.12.6,4.06-.06,8.28.06,12.23-1.06,2.04-.53,2.51-1.89,2.43-3.72v-.14Z" fill="#fb0" stroke-width="0"/><path d="M238.66,125.7c.82-4.45-2.17-3.53-5.29-3.78-6.73-.34-13.52-1.55-20.26-.4-1.91.17-4.62-.06-4.79,2.45-.38,3.82-.17,6.53,4.32,6.56,4.3.04,26.62,2.8,26.09-3.53-.03-.67-.29-1.02-.49-.77-.3.3-.32,1.43-.8,2.02-1.49,1.55-4.01,1.51-6.03,1.8-6.42.52-12.99.19-19.37-.38-.83-.09-1.83-.27-2.38-.89-.93-1.14-.66-3.29-.52-4.8.12-.6.43-1.07.95-1.28,1.38-.39,3.2-.26,4.7-.56,7.05-.99,14.23.62,21.3.71,1.03.03,1.76.51,1.81,1.65.05.6.28,1.83.71,1.29l.04-.09Z" fill="#fff" stroke-width="0"/><path d="M237.8,121.68c-7.86-2.38-16.06-1.87-24.23-1.29-1.23.14-2.72.38-3.71.88-1.47.68-1.42,2.14.16,2.58,1.65.5,3.56.44,5.3.58,6.58.38,13.36.87,19.86-.38,1.04-.28,3.99-1.06,2.73-2.31l-.11-.07Z" fill="#fb0" stroke-width="0"/><path d="M237.99,121.37c-3.66-1.53-8.37-1.61-12.42-1.85-5.33.21-10.89-.41-15.92,1.35-1.67.81-1.73,2.69.11,3.34.92.36,1.99.42,2.98.47,6.95.32,14.11.95,21.03.03,1.59-.32,4.47-.58,4.86-2.42-.03-.47-.33-.64-.55-.41-.89,1.44-3.09,1.86-4.73,2.08-6.78.8-13.59.27-20.31-.07-1.38.05-5.51-.66-2.81-2.37,5.41-1.58,11.68-1.11,17.31-1.15,3.41.16,6.75.81,10.09,1.39.42,0,.6-.13.43-.34l-.07-.07Z" fill="#fff" stroke-width="0"/><path d="M229.27,122.11c-2.6-.83-5.48-.73-8.2-.62-.95.07-2.13.06-2.97.45-1.8,1.45,2.73,1.23,3.45,1.34,1.26.02,8.02.52,7.79-1.13l-.07-.04Z" fill="#fff" stroke-width="0"/><path d="M211.88,125.79c-.05.13-.1.48-.03.61.03.11.02-.02-.03.21-.05.27,0,.36.05.55.09.43-.29,1.56.52,1.46.31-.09.31-.39.29-.63.03-.47.06-.74-.07-1.25.14-.33-.04-.49.05-.79.11-.58-.67-.68-.77-.21v.05Z" fill="#fff" stroke-width="0"/><path d="M217.11,126.06c-.36.49-.06,1.32-.05,1.93.04.36-.04.77.3,1,.28.14.62-.19.56-.45-.02-.14-.19-.39-.41-.36-.27-.03-.47.37-.39.43.05,0,.74.07.78-.04.05-.54-.13-1.37-.13-1.91,0-.13-.05-.05-.01-.09.24-.42-.19-.84-.63-.55l-.03.04Z" fill="#fff" stroke-width="0"/><path d="M221.7,126.55c-.01.28.08,1.02.08,1.28.03.39-.02,1.28.6,1.15.54-.27.16-.73.22-1.33-.1-.47.07-1.12-.19-1.45-.28-.28-.65,0-.71.28v.06Z" fill="#fff" stroke-width="0"/><path d="M226.58,126.52c-.04.42.01,1.15.07,1.59-.02.49.07,1.24.7.83.34-.47-.02-1.44.05-1.92,0-.33.08-.79-.24-.91-.28-.14-.54.17-.57.36v.06Z" fill="#fff" stroke-width="0"/><path d="M230.96,126.48c-.01.16-.01.57.06.73.05.15.03-.05.03.14,0,.26-.01.7.07,1.01,0,.04-.03-.03.15-.14.15-.04.43-.08.37-.15-.65-.29-.82.89,0,.74.31-.11.33-.37.3-.6-.09-.35.01-.77-.07-1.13-.15-.36.06-.87-.32-1.01-.28-.14-.54.17-.56.36v.05Z" fill="#fff" stroke-width="0"/><path d="M235.38,125.35c-.11.24-.03.64-.03.92.05.51-.22,2.25.75,1.81.2-.15.16-.44.12-.62-.04-.44-.01-.93-.03-1.37-.02-.3-.03-.24-.04-.36.17-.54-.35-.8-.75-.43l-.03.05Z" fill="#fff" stroke-width="0"/><path d="M246.83,120.22c.15-3.32-.53-3.35-3.64-3.39-5.29-.03-10.67-1.16-15.92-.99-2.14.09-6.81.59-8.99.9-1.48.52-1.08,2.46-1.17,3.71.03,1.06-.04,2.24.7,3.08.77.84,2.14.91,3.24,1.03,3.68.25,7.41.48,11.12.6,4.06-.06,8.28.06,12.23-1.06,2.04-.53,2.51-1.89,2.43-3.72v-.14Z" fill="#fb0" stroke-width="0"/><path d="M247.68,118.66c-.26-4.24-2.73-2.05-5.85-2.3-6.73-.34-13.52-1.55-20.26-.4-1.91.17-4.62-.06-4.79,2.45-.38,3.82-.17,6.53,4.32,6.56,4.24.04,25.91,2.71,26.08-3.25,0,0,0,0,0,0l.49-3.05ZM245.91,122.69c-1.49,1.55-4.01,1.51-6.03,1.8-6.42.52-12.99.19-19.37-.38-.83-.09-1.83-.27-2.38-.89-.93-1.14-.66-3.29-.52-4.8.12-.6.43-1.07.95-1.28,1.38-.39,3.2-.26,4.7-.56,7.05-.99,14.23.62,21.3.71,1.03.03,2.21.11,2.25,1.25.02.3-.17,2.24-.17,2.24,0,0-.29,1.37-.73,1.91Z" fill="#fff" stroke-width="0"/><path d="M246.27,116.11c-7.86-2.38-16.06-1.87-24.23-1.29-1.23.14-2.72.38-3.71.88-1.47.68-1.42,2.14.16,2.58,1.65.5,3.56.44,5.3.58,6.58.38,13.36.87,19.86-.38,1.04-.28,3.99-1.06,2.73-2.31l-.11-.07Z" fill="#fb0" stroke-width="0"/><path d="M246.45,115.81c-3.66-1.53-8.37-1.61-12.42-1.85-5.33.21-10.89-.41-15.92,1.35-1.67.81-1.73,2.69.11,3.34.92.36,1.99.42,2.98.47,6.95.32,14.11.95,21.03.03,1.59-.32,4.47-.58,4.86-2.42-.03-.47-.33-.64-.55-.41-.89,1.44-3.09,1.86-4.73,2.08-6.78.8-13.59.27-20.31-.07-1.38.05-5.51-.66-2.81-2.37,5.41-1.58,11.68-1.11,17.31-1.15,3.41.16,6.75.81,10.09,1.39.42,0,.6-.13.43-.34l-.07-.07Z" fill="#fff" stroke-width="0"/><path d="M237.73,116.55c-2.6-.83-5.48-.73-8.2-.62-.95.07-2.13.06-2.97.45-1.8,1.45,2.73,1.23,3.45,1.34,1.26.02,8.02.52,7.79-1.13l-.07-.04Z" fill="#fff" stroke-width="0"/><path d="M240.67,114.14c.15-3.32-.53-3.35-3.64-3.39-5.29-.03-10.67-1.16-15.92-.99-2.14.09-6.81.59-8.99.9-1.48.52-1.08,2.46-1.17,3.71.03,1.06-.04,2.24.7,3.08.77.84,2.14.91,3.24,1.03,3.68.25,7.41.48,11.12.6,4.06-.06,8.28.06,12.23-1.06,2.04-.53,2.51-1.89,2.43-3.72v-.14Z" fill="#fb0" stroke-width="0"/><path d="M240.95,114.06c.82-4.45-2.17-3.53-5.29-3.78-6.73-.34-13.52-1.55-20.26-.4-1.91.17-4.62-.06-4.79,2.45-.38,3.82-.17,6.53,4.32,6.56,4.3.04,26.62,2.8,26.09-3.53-.03-.67-.29-1.02-.49-.77-.3.3-.32,1.43-.8,2.02-1.49,1.55-4.01,1.51-6.03,1.8-6.42.52-12.99.19-19.37-.38-.83-.09-1.83-.27-2.38-.89-.93-1.14-.66-3.29-.52-4.8.12-.6.43-1.07.95-1.28,1.38-.39,3.2-.26,4.7-.56,7.05-.99,14.23.62,21.3.71,1.03.03,1.76.51,1.81,1.65.05.6.28,1.83.71,1.29l.04-.09Z" fill="#fff" stroke-width="0"/><path d="M240.1,110.03c-7.86-2.38-16.06-1.87-24.23-1.29-1.23.14-2.72.38-3.71.88-1.47.68-1.42,2.14.16,2.58,1.65.5,3.56.44,5.3.58,6.58.38,13.36.87,19.86-.38,1.04-.28,3.99-1.06,2.73-2.31l-.11-.07Z" fill="#fb0" stroke-width="0"/><path d="M240.28,109.73c-3.66-1.53-8.37-1.61-12.42-1.85-5.33.21-10.89-.41-15.92,1.35-1.67.81-1.73,2.69.11,3.34.92.36,1.99.42,2.98.47,6.95.32,14.11.95,21.03.03,1.59-.32,4.47-.58,4.86-2.42-.03-.47-.33-.64-.55-.41-.89,1.44-3.09,1.86-4.73,2.08-6.78.8-13.59.27-20.31-.07-1.38.05-5.51-.66-2.81-2.37,5.41-1.58,11.68-1.11,17.31-1.15,3.41.16,6.75.81,10.09,1.39.42,0,.6-.13.43-.34l-.07-.07Z" fill="#fff" stroke-width="0"/><path d="M231.56,110.47c-2.6-.83-5.48-.73-8.2-.62-.95.07-2.13.06-2.97.45-1.8,1.45,2.73,1.23,3.45,1.34,1.26.02,8.02.52,7.79-1.13l-.07-.04Z" fill="#fff" stroke-width="0"/><path d="M214.17,114.15c-.05.13-.1.48-.03.61.03.11.02-.02-.03.21-.05.27,0,.36.05.55.09.43-.29,1.56.52,1.46.31-.09.31-.39.29-.63.03-.47.06-.74-.07-1.25.14-.33-.04-.49.05-.79.11-.58-.67-.68-.77-.21v.05Z" fill="#fff" stroke-width="0"/><path d="M219.41,114.42c-.36.49-.06,1.32-.05,1.93.04.36-.04.77.3,1,.28.14.62-.19.56-.45-.02-.14-.19-.39-.41-.36-.27-.03-.47.37-.39.43.05,0,.74.07.78-.04.05-.54-.13-1.37-.13-1.91,0-.13-.05-.05-.01-.09.24-.42-.19-.84-.63-.55l-.03.04Z" fill="#fff" stroke-width="0"/><path d="M223.99,114.9c-.01.28.08,1.02.08,1.28.03.39-.02,1.28.6,1.15.54-.27.16-.73.22-1.33-.1-.47.07-1.12-.19-1.45-.28-.28-.65,0-.71.28v.06Z" fill="#fff" stroke-width="0"/><path d="M228.88,114.87c-.04.42.01,1.15.07,1.59-.02.49.07,1.24.7.83.34-.47-.02-1.44.05-1.92,0-.33.08-.79-.24-.91-.28-.14-.54.17-.57.36v.06Z" fill="#fff" stroke-width="0"/><path d="M233.26,114.83c-.01.16-.01.57.06.73.05.15.03-.05.03.14,0,.26-.01.7.07,1.01,0,.04-.03-.03.15-.14.15-.04.43-.08.37-.15-.65-.29-.82.89,0,.74.31-.11.33-.37.3-.6-.09-.35.01-.77-.07-1.13-.15-.36.06-.87-.32-1.01-.28-.14-.54.17-.56.36v.05Z" fill="#fff" stroke-width="0"/><path d="M237.68,113.71c-.11.24-.03.64-.03.92.05.51-.22,2.25.75,1.81.2-.15.16-.44.12-.62-.04-.44-.01-.93-.03-1.37-.02-.3-.03-.24-.04-.36.17-.54-.35-.8-.75-.43l-.03.05Z" fill="#fff" stroke-width="0"/><path d="M234.57,107.57c.28-3.32-.37-3.4-3.5-3.57-5.29-.27-10.62-1.64-15.88-1.69-2.75-.07-5.35.43-8.1.37-.3.02-.64.05-.92.14-1.5.46-1.19,2.42-1.33,3.67-.02,1.06-.13,2.24.57,3.11,1.05,1.15,2.92,1.09,4.37,1.32,3.34.33,6.74.73,10.11.96,4,.11,8.14.4,12.08-.54,2.06-.44,2.6-1.79,2.59-3.63v-.15Z" fill="#fb0" stroke-width="0"/><path d="M234.84,107.48c1.05-4.7-2.42-3.53-5.59-4.05-6.62-.64-13.12-2.18-19.76-1.2-3.05.01-5.02-.15-5.06,3.57-.48,4.57,1.34,5.2,5.38,5.52,4.25.19,25.28,3.72,25.06-2.56,0-.67-.24-1.02-.45-.75-.28.29-.43,1.33-.89,1.89-.56.69-1.4.96-2.27,1.16-7.96,1.14-16.31.24-24.24-1.02-2.2-.46-1.89-2.87-1.76-4.68-.01-2.67,2.09-2.32,4.12-2.39,3.53-.35,7.06-.4,10.64.07,3.16.39,6.32.93,9.44,1.19,1.34.22,2.88-.02,4.11.56.83.44.43,2.05.8,2.68.08.19.3.34.42.08l.04-.09Z" fill="#fff" stroke-width="0"/><path d="M234.16,103.43c-7.75-2.74-15.98-2.53-24.16-2.33-1.23.08-2.73.25-3.75.72-1.5.62-1.52,2.08.05,2.58,1.63.57,3.54.59,5.27.81,6.56.67,13.31,1.43,19.87.48,1.05-.23,4.03-.89,2.83-2.18l-.11-.08Z" fill="#fb0" stroke-width="0"/><path d="M234.37,103.13c-.45-.42-1.38-.63-2.04-.81-3.24-.76-6.72-1.35-10.12-1.56-5.38-.02-11.01-.89-16.16.68-1.7.74-1.82,2.63,0,3.35.91.39,1.97.49,2.96.59,4.53.2,24.2,3.24,25.96-1.26,0-.48-.28-.67-.51-.45-.96,1.4-3.2,1.72-4.85,1.87-6.73.5-13.45-.31-20.1-.93-1.18-.2-3.42-.13-3.81-1.45.29-2.82,13.86-1.51,16.52-1.59,3.98.19,7.95,1.1,11.81,1.96.42.02.59-.12.42-.34l-.07-.07Z" fill="#fff" stroke-width="0"/><path d="M225.62,103.49c-2.56-.94-5.44-.96-8.16-.97-.96.03-2.14-.04-2.99.32-1.66,1.16,1.7,1.33,2.39,1.39,1.38.09,8.97,1.07,8.83-.69l-.07-.05Z" fill="#fff" stroke-width="0"/><path d="M253.44,147.69c5.71-7.69,2.44-18.64-7.58-19.92-11.36-1.8-19.31,8.52-14.63,18.51,4.27,8.64,16.45,9.04,22.11,1.54l.1-.12Z" fill="#444" stroke-width="0"/><path d="M253.75,147.72c4.83-5.66,3.33-15.41-3.39-18.9-11.09-5.91-24.56,3.86-20.06,16.34,3.07,9.39,17.05,11.13,22.83,3.33.43-1-.6-.35-.94,0-1.78,1.81-3.98,3.16-6.37,3.78-8.19,2.38-16.35-4.52-15.42-12.99.38-8.8,10.95-13.74,18.57-10.24,6.78,2.86,8.6,11.58,4.68,17.54-.15.31-.7,1.48,0,1.21l.1-.06Z" fill="#fff" stroke-width="0"/><path d="M250.81,147.69c5.71-7.69,2.44-18.64-7.58-19.92-11.36-1.8-19.31,8.52-14.63,18.51,4.27,8.64,16.45,9.04,22.11,1.54l.1-.12Z" fill="#fb0" stroke-width="0"/><path d="M251.14,147.72c4.83-5.66,3.33-15.41-3.39-18.9-11.09-5.91-24.56,3.86-20.06,16.34,3.07,9.39,17.05,11.13,22.83,3.33.43-1-.6-.35-.94,0-1.78,1.81-3.98,3.16-6.37,3.78-8.19,2.38-16.35-4.52-15.42-12.99.38-8.8,10.95-13.74,18.57-10.24,6.78,2.86,8.6,11.58,4.68,17.54-.15.31-.7,1.48,0,1.21l.1-.06Z" fill="#fff" stroke-width="0"/><path d="M239.45,150.54c-14.76-2.91-10.68-22.6,3.79-19.82,9.24,1.77,8.99,13.54,2.36,17.91-1.37.96-3.02,1.44-4.66,1.71-.89.18-1.34.57-.53.74,11.51.28,15.93-19.24,2.83-21.27-6.29-1.09-12.91,2.2-13.82,9.08-.6,3.76.9,7.63,3.86,9.9,1.66,1.19,4.07,2.6,6.26,2.16.16-.09.15-.21,0-.34l-.09-.06Z" fill="#fff" stroke-width="0"/><path d="M239.13,135.32c2.29-.13,4.2,1.9,2.74,4.03-.9,1.17-2.51,1.21-3.84,1.27-.3.06-.48.27-.39.46.79.74,2.76.22,3.71-.21,2.14-.89,2.61-4.2.69-5.54-.52-.5-3.4-1.51-3.32-.27.06.13.16.21.3.24h.11Z" fill="#444" stroke-width="0"/><path d="M237.61,141.19c1.01,1.91,2.43,3.8,3.27,5.81.15.3.55.62.81.27.16-.22,0-.58-.13-.87-.86-1.94-2.16-3.71-3.16-5.56-.29-.56-.88-.31-.85.16l.06.19Z" fill="#444" stroke-width="0"/><path d="M235.98,135.34c2.99-.04,6.02.1,9-.06.23-.07.38-.25.34-.44-.03-.14-.16-.25-.34-.3-1.44-.15-2.99-.02-4.45-.06-.7.17-6.14-.55-4.78.8l.23.06Z" fill="#444" stroke-width="0"/><path d="M235.98,139.24c2.99-.04,6.02.1,9-.06.23-.07.38-.25.34-.44-.03-.14-.16-.25-.34-.3-1.44-.15-2.99-.02-4.45-.06-.7.17-6.14-.55-4.78.8l.23.06Z" fill="#444" stroke-width="0"/><path d="M238.91,98.95c-1.09,1.54-.16,4.45,2.08,4.16,1.48-.17,2.28-1.75,1.82-3.09-.36-1.73-2.22-2.14-3.51-1.17-.58.6.23.76.72.53,1.82-.94,2.93,1.95,1.25,2.78-1.22.57-2.27-.9-1.93-2.02.09-.43.38-.89.26-1.18-.06-.15-.23-.21-.37-.21-.24.07.07-.08-.26.13l-.07.09Z" fill="#fb0" stroke-width="0"/><path d="M212.75,129.16l.07.05s-.06,0-.07-.05Z" fill="#999" stroke-width="0"/><path d="M250.4,95.42c2.03.08,3.75-1.66,4.19-3.57.03-.24.08-.66-.1-.72-.17.11-.15.54-.12.8.36,1.7,1.54,2.93,3.23,3.32.18.02.56.08.55-.04-1.06-.24-2.35.61-2.92,1.52-.49.78-.82,1.76-.83,2.68.02.24.09.63.32.6.59-.75-.27-2.22-.69-2.98-.68-1.14-2.88-2.78-4.1-1.94-.04.29.57.52.87.64.89.29,1.69.74,2.22,1.44.52.62.82,1.44,1.07,2.25.13.39.49,1.25.88.66.39-.74.36-1.73.8-2.49.45-1.09,1.64-1.47,2.59-1.94.95-.55-.1-1.07-.73-1.24-1.31-.36-2.21-1.39-2.49-2.71-.65-2.37-1.32-.32-1.79.8-.46.92-1.18,1.59-2.2,1.9-.54.18-1.7.65-.91.99l.13.03Z" fill="#fb0" stroke-width="0"/><path d="M132.92,33.62c-7.17,1.9-11.67-5.89-7.82-11.86.99-1.72,2.48-3.01,4.5-3.33,9.72-2.55,12.28,12.31,3.47,15.14l-.14.04Z" fill="#444" stroke-width="0"/><path d="M126.16,26.75c.74,1.09,1.8,2.94,3.23,2.82,1.16-.07,2.1-1.01,2.88-1.81,1.12-1.21,2.42-2.35,3.35-3.76.63-.82-.13-1.94-1.12-1.66-.7.22-1.03.97-1.51,1.46-1.05,1.16-2.17,2.2-3.27,3.31-.25.17-.49.26-.73-.06-.58-.65-.96-2.05-2.03-1.98-.81.03-1.26.92-.86,1.59l.06.1Z" fill="#fb0" stroke-width="0"/><path d="M237.92,150.15s1.89.57,4.22-.04l.12.82s-3.29.5-4.48.01l.14-.8Z" fill="#fff" stroke-width="0"/><path d="M249.32,148.78s1.41-1.45,2.33-3.29l.66.62s-2.16,3.02-2.71,3.35l-.28-.67Z" fill="#fff" stroke-width="0"/><path d="M251.96,148.72s1.21-1.17,2.23-3.1l.63.67s-1.9,2.73-2.23,2.9l-.63-.48Z" fill="#fff" stroke-width="0"/><path d="M240.35,115.71c.23.06.46.09.7.08.14-1.05.07-2.14-.22-3.16.03.1-.39.57-.46.67-.14.21-.1.39-.09.64l.07,1.77Z" fill="#fff" stroke-width="0"/><path d="M233.56,103.43s.09,0,.14,0c.05,0,.09,0,.13.02.04,0,.07.03.1.05.05.03.09.05.13.09.02.02.05.04.07.06.02.02.03.05.04.08.02.04.03.07.04.12.01.08.01.16-.01.23-.02.05-.05.1-.08.15-.02.04-.05.09-.06.13.05,0,.1.03.15.06.04.02.08.03.12.04.02,0,.04,0,.06,0,.03,0,.05.02.09.01.04,0,.07,0,.11-.02.07-.01.13-.07.17-.12.04-.05.08-.1.09-.16.02-.09.02-.18.02-.27s0-.2-.04-.29c-.03-.08-.1-.15-.16-.21-.12-.12-.26-.23-.42-.29-.12-.05-.24-.08-.36-.1-.07,0-.14-.01-.21-.01,0,0-.11,0-.12,0,0,.01,0,.03,0,.05,0,.03,0,.06,0,.09v.28Z" fill="#fff" stroke-width="0"/><path d="M234.2,106.86v1.44c0,.08,0,.17,0,.25,0,.09-.03.18-.04.27-.01.06-.03.13-.03.19,0,.05,0,.09,0,.14,0,.05-.03.18.01.21.03.02.07.02.1.03.03.01.05.03.08.04.06.02.12.03.17.06.06.03.09.03.15.03.06,0,.08,0,.1-.05.03-.09.07-.16.1-.25.04-.16.08-.31.11-.47.04-.21.09-.4.12-.61.03-.23.07-.46.11-.69.03-.2.06-.4.06-.61,0-.13.01-.27,0-.4-.01-.1-.08-.19-.13-.27-.04-.08-.09-.15-.13-.23-.03-.05-.04-.1-.09-.15-.05-.06-.13-.06-.21-.06-.08,0-.15.03-.21.09-.09.08-.17.22-.22.33" fill="#fff" stroke-width="0"/></g></g></svg>